<svg width="270" height="314" version="1.1" xmlns="http://www.w3.org/2000/svg" desc="Created with imagetracer.js version 1.2.6" ><path fill="rgb(0,0,0)" stroke="rgb(0,0,0)" stroke-width="1" opacity="0" d="M 0 0 L 270 0 L 270 314 L 0 314 L 0 0 Z M 181 26 Q 178 33 172 37 L 176 39 L 181 47 L 183 43 L 190 37 L 188 35 L 181 26 Z M 225 52 Q 222 61 216 68 L 203 78 L 214 85 Q 221 92 225 103 L 231 91 L 246 78 L 235 70 L 230 64 L 225 52 Z M 25 54 L 21 56 Q 16 59 15 65 L 16 73 Q 19 78 26 80 Q 32 81 36 78 L 42 70 L 74 71 L 75 73 L 76 79 L 85 85 Q 92 86 95 83 L 108 101 L 105 108 L 107 115 Q 109 120 116 121 Q 121 123 123 120 L 142 146 L 139 152 Q 138 158 141 162 Q 144 166 150 167 L 151 188 L 149 189 L 142 197 Q 141 205 144 209 Q 147 213 154 214 Q 164 213 168 206 L 185 211 L 201 214 L 204 220 L 212 224 Q 219 225 222 222 L 227 216 Q 229 202 221 200 L 235 175 Q 243 177 248 173 L 253 166 Q 254 158 251 155 L 244 149 Q 236 148 233 151 Q 228 153 228 158 L 165 153 L 163 147 Q 160 142 155 141 L 147 142 L 128 118 L 132 111 Q 133 103 129 100 L 123 95 Q 115 94 113 97 L 99 80 L 101 75 Q 102 67 98 64 L 92 59 Q 79 58 76 66 L 47 65 L 41 64 L 40 61 L 33 54 L 25 54 Z M 57 162 L 51 173 L 44 179 Q 41 178 42 181 L 48 184 Q 54 189 57 198 L 61 189 L 70 181 Q 72 182 71 179 L 67 177 Q 59 172 57 162 Z M 58 248 L 57 249 L 42 250 L 29 253 L 42 255 L 45 261 L 44 267 Q 43 269 40 268 Q 37 267 38 264 L 42 259 L 24 261 L 22 263 L 28 264 L 24 269 L 25 275 L 28 277 L 36 280 L 43 280 L 51 277 Q 56 275 57 269 Q 58 261 54 258 L 50 255 L 60 249 L 58 248 Z M 236 248 L 234 251 L 229 249 L 219 249 L 211 252 L 204 261 Q 203 268 206 272 Q 210 278 219 280 L 228 280 Q 234 279 238 275 L 237 272 Q 235 263 240 262 L 238 261 L 236 248 Z M 62 249 Q 63 253 69 256 L 67 277 L 65 278 L 63 281 L 75 280 L 76 279 L 86 279 L 90 278 L 83 274 L 79 255 L 89 253 L 90 252 L 62 249 Z M 111 249 L 110 250 L 93 251 L 90 253 L 97 255 L 95 267 L 95 274 L 93 277 Q 90 276 91 279 L 111 280 L 112 281 L 114 281 L 109 277 Q 105 276 106 272 L 110 273 Q 117 274 121 271 L 125 264 Q 126 257 123 255 L 118 250 L 111 249 Z M 130 249 Q 131 253 137 255 L 136 262 L 136 272 L 135 273 Q 137 278 134 277 L 131 281 Q 134 278 143 280 L 144 279 L 153 279 L 157 278 L 152 274 L 150 273 L 147 255 L 157 252 L 130 249 Z M 175 249 L 167 251 L 161 251 L 158 253 L 164 256 L 163 275 L 159 278 L 162 279 L 183 280 L 184 281 L 184 279 L 179 277 L 177 276 L 175 266 L 175 264 L 186 279 L 198 279 L 198 277 L 193 276 L 196 254 L 200 253 L 199 251 L 189 251 L 188 250 L 180 251 L 183 252 L 185 259 L 185 265 L 178 251 L 175 249 Z " /><path fill="rgb(0,0,0)" stroke="rgb(0,0,0)" stroke-width="1" opacity="0" d="M 27.5 59 L 34 61 L 36 68.5 L 31.5 74 Q 24.3 75.3 22 71.5 L 21 64.5 L 24.5 60 L 27.5 59 Z " /><path fill="rgb(0,0,0)" stroke="rgb(0,0,0)" stroke-width="1" opacity="0" d="M 84.5 65 Q 91.8 63.8 94 67.5 L 95 74.5 L 92.5 78 L 84.5 79 Q 80.1 76.9 80 70.5 L 84.5 65 Z " /><path fill="rgb(0,0,0)" stroke="rgb(0,0,0)" stroke-width="1" opacity="0" d="M 224.5 65 L 236 77.5 L 224.5 90 L 213 77.5 L 218 73.5 L 224.5 65 Z " /><path fill="rgb(0,0,0)" stroke="rgb(0,0,0)" stroke-width="1" opacity="0" d="M 115.5 101 Q 122.8 99.8 125 103.5 L 126 110.5 L 123.5 114 L 115.5 115 Q 111.1 112.9 111 106.5 L 115.5 101 Z " /><path fill="rgb(0,0,0)" stroke="rgb(0,0,0)" stroke-width="1" opacity="0" d="M 149.5 147 Q 157.1 145.9 159 150.5 L 160 155.5 L 158 160 L 150.5 162 L 145 157.5 Q 143.8 150.3 147.5 148 L 149.5 147 Z " /><path fill="rgb(0,0,0)" stroke="rgb(0,0,0)" stroke-width="1" opacity="0" d="M 236.5 155 Q 245.3 153.3 247 158.5 L 248 162.5 L 243.5 169 Q 234.8 170.8 233 165.5 Q 231.3 156.8 236.5 155 Z " /><path fill="rgb(0,0,0)" stroke="rgb(0,0,0)" stroke-width="1" opacity="0" d="M 165.5 158 Q 170.3 160.2 178.5 159 L 182 160.5 L 177 163.5 L 179.5 164 L 184.5 161 L 201.5 161 L 202.5 162 L 224.5 163 L 227 164 L 231 172.5 L 214.5 198 L 210.5 198 L 204 202.5 L 200.5 209 L 193 205.5 L 191.5 203 L 187.5 203 Q 186.4 205.8 183 205 L 186 198.5 L 186 194.5 Q 183.1 190.9 184 183.5 L 186 179 L 193.5 177 L 199 181.5 Q 198.3 185.3 200.5 186 L 201 182.5 L 199 178 L 195.5 176 L 188.5 176 L 184 179.5 L 183 181.5 L 183 192.5 Q 185.5 194 184 199.5 L 180.5 204 L 168 201 Q 167.6 192.6 161.5 189 L 157 188 Q 154.9 181.6 156 170.5 L 155 167 Q 161.1 166.2 164 160.5 L 165.5 158 Z M 188 163 L 179 167 Q 173 171 171 178 L 173 178 L 176 172 L 187 165 L 198 165 L 199 166 L 201 166 Q 197 161 188 163 Z M 189 167 L 182 170 L 181 172 L 188 169 L 197 169 L 206 176 L 207 176 L 206 174 Q 201 166 189 167 Z M 191 171 L 184 174 Q 179 177 178 184 Q 177 188 179 190 Q 181 198 176 201 L 177 202 L 181 196 L 180 191 Q 179 182 182 178 L 190 173 Q 197 172 200 175 L 204 181 L 205 188 L 207 189 L 206 182 L 204 178 Q 201 171 191 171 Z M 177 174 L 174 182 L 174 191 L 175 192 L 172 197 L 174 197 L 176 195 L 176 181 L 179 176 Q 180 173 177 174 Z M 190 180 L 187 183 L 188 194 L 194 203 L 198 205 L 191 196 L 188 186 L 189 182 L 192 181 L 194 182 L 195 184 L 196 191 L 201 198 L 204 199 L 197 189 Q 198 183 196 181 L 190 180 Z M 192 184 Q 191 194 197 200 L 201 202 L 194 193 L 193 186 L 192 184 Z M 202 189 L 203 194 L 206 195 L 202 189 Z " /><path fill="rgb(0,0,0)" stroke="rgb(0,0,0)" stroke-width="1" opacity="0" d="M 56.5 174 L 61 180.5 L 56.5 186 L 53 181 L 51 180.5 L 56.5 174 Z " /><path fill="rgb(0,0,0)" stroke="rgb(0,0,0)" stroke-width="1" opacity="0" d="M 153.5 193 Q 159.9 193.1 162 197.5 Q 162.8 203.6 161 206 L 157.5 208 L 152.5 208 L 148 204.5 L 147 199.5 L 150.5 194 L 153.5 193 Z " /><path fill="rgb(0,0,0)" stroke="rgb(0,0,0)" stroke-width="1" opacity="0" d="M 213.5 203 Q 219.1 203.5 221 207.5 L 222 212.5 L 217.5 218 Q 210.3 219.3 208 215.5 L 207 208.5 L 210.5 204 L 213.5 203 Z " /><path fill="rgb(0,0,0)" stroke="rgb(0,0,0)" stroke-width="1" opacity="0" d="M 188 204 L 191 205.5 L 188 206 L 188 204 Z " /><path fill="rgb(0,0,0)" stroke="rgb(0,0,0)" stroke-width="1" opacity="0" d="M 106 255 Q 109.3 253.7 108 258.5 L 105 260.5 L 106 255 Z " /><path fill="rgb(0,0,0)" stroke="rgb(0,0,0)" stroke-width="1" opacity="0" d="M 225.5 255 Q 233 255.5 236 260.5 L 233.5 261 Q 231.8 258.3 225.5 260 L 223 257.5 Q 222.3 255.3 224.5 256 L 225.5 255 Z " /><path fill="rgb(0,0,0)" stroke="rgb(0,0,0)" stroke-width="1" opacity="0" d="M 221.5 257 L 222 270.5 L 219 268.5 L 218 262.5 L 221.5 257 Z " /><path fill="rgb(0,0,0)" stroke="rgb(0,0,0)" stroke-width="1" opacity="0" d="M 225.5 268 Q 227.8 267.3 227 269.5 L 226 272 Q 223 273.3 224 269.5 L 225.5 268 Z " /><path fill="rgb(0,0,0)" stroke="rgb(0,0,0)" stroke-width="1" opacity="0.9254901960784314" d="M 186.5 34 L 187.5 36 L 186.5 34 Z " /><path fill="rgb(0,0,0)" stroke="rgb(0,0,0)" stroke-width="1" opacity="0.9254901960784314" d="M 173.5 35 L 172.5 37 L 173.5 35 Z " /><path fill="rgb(0,0,0)" stroke="rgb(0,0,0)" stroke-width="1" opacity="0.9254901960784314" d="M 175.5 38 L 177.5 41 L 175.5 38 Z " /><path fill="rgb(0,0,0)" stroke="rgb(0,0,0)" stroke-width="1" opacity="0.9254901960784314" d="M 181.5 44 L 180.5 46 L 181.5 44 Z " /><path fill="rgb(0,0,0)" stroke="rgb(0,0,0)" stroke-width="1" opacity="0.9254901960784314" d="M 35.5 56 L 38.5 60 L 35.5 56 Z " /><path fill="rgb(0,0,0)" stroke="rgb(0,0,0)" stroke-width="1" opacity="0.9254901960784314" d="M 86.5 59 L 90 59.5 L 86.5 60 L 86.5 59 Z " /><path fill="rgb(0,0,0)" stroke="rgb(0,0,0)" stroke-width="1" opacity="0.9254901960784314" d="M 79.5 62 L 77.5 65 L 79.5 62 Z " /><path fill="rgb(0,0,0)" stroke="rgb(0,0,0)" stroke-width="1" opacity="0.9254901960784314" d="M 219.5 63 L 218.5 65 L 219.5 63 Z " /><path fill="rgb(0,0,0)" stroke="rgb(0,0,0)" stroke-width="1" opacity="0.9254901960784314" d="M 52.5 65 L 57 65.5 L 52.5 66 L 52.5 65 Z " /><path fill="rgb(0,0,0)" stroke="rgb(0,0,0)" stroke-width="1" opacity="0.9254901960784314" d="M 92.5 65 L 94.5 68 L 92.5 65 Z " /><path fill="rgb(0,0,0)" stroke="rgb(0,0,0)" stroke-width="1" opacity="0.9254901960784314" d="M 72.5 66 L 77 66.5 L 72.5 67 L 72.5 66 Z " /><path fill="rgb(0,0,0)" stroke="rgb(0,0,0)" stroke-width="1" opacity="0.9254901960784314" d="M 215.5 68 L 212.5 72 L 215.5 68 Z " /><path fill="rgb(0,0,0)" stroke="rgb(0,0,0)" stroke-width="1" opacity="0.9254901960784314" d="M 43.5 69 L 47 69.5 L 43.5 70 L 43.5 69 Z " /><path fill="rgb(0,0,0)" stroke="rgb(0,0,0)" stroke-width="1" opacity="0.9254901960784314" d="M 220.5 69 L 218.5 72 L 220.5 69 Z " /><path fill="rgb(0,0,0)" stroke="rgb(0,0,0)" stroke-width="1" opacity="0.9254901960784314" d="M 63.5 70 L 68 70.5 L 63.5 71 L 63.5 70 Z " /><path fill="rgb(0,0,0)" stroke="rgb(0,0,0)" stroke-width="1" opacity="0.9254901960784314" d="M 229.5 70 L 236.5 78 L 229.5 70 Z " /><path fill="rgb(0,0,0)" stroke="rgb(0,0,0)" stroke-width="1" opacity="0.9254901960784314" d="M 21.5 71 L 23.5 74 L 21.5 71 Z " /><path fill="rgb(0,0,0)" stroke="rgb(0,0,0)" stroke-width="1" opacity="0.9254901960784314" d="M 17.5 73 L 18.5 75 L 17.5 73 Z " /><path fill="rgb(0,0,0)" stroke="rgb(0,0,0)" stroke-width="1" opacity="0.9254901960784314" d="M 239.5 73 L 240.5 75 L 239.5 73 Z " /><path fill="rgb(0,0,0)" stroke="rgb(0,0,0)" stroke-width="1" opacity="0.9254901960784314" d="M 214.5 75 L 213 77.5 L 219.5 85 L 212 77.5 L 214.5 75 Z " /><path fill="rgb(0,0,0)" stroke="rgb(0,0,0)" stroke-width="1" opacity="0.9254901960784314" d="M 20.5 76 L 21.5 78 L 20.5 76 Z " /><path fill="rgb(0,0,0)" stroke="rgb(0,0,0)" stroke-width="1" opacity="0.9254901960784314" d="M 94.5 76 L 92.5 79 L 94.5 76 Z " /><path fill="rgb(0,0,0)" stroke="rgb(0,0,0)" stroke-width="1" opacity="0.9254901960784314" d="M 77.5 79 L 79.5 82 L 77.5 79 Z " /><path fill="rgb(0,0,0)" stroke="rgb(0,0,0)" stroke-width="1" opacity="0.9254901960784314" d="M 234.5 79 L 229.5 85 L 234.5 79 Z " /><path fill="rgb(0,0,0)" stroke="rgb(0,0,0)" stroke-width="1" opacity="0.9254901960784314" d="M 208.5 80 L 209.5 82 L 208.5 80 Z " /><path fill="rgb(0,0,0)" stroke="rgb(0,0,0)" stroke-width="1" opacity="0.9254901960784314" d="M 99.5 81 L 100.5 83 L 99.5 81 Z " /><path fill="rgb(0,0,0)" stroke="rgb(0,0,0)" stroke-width="1" opacity="0.9254901960784314" d="M 94.5 82 L 96.5 85 L 94.5 82 Z " /><path fill="rgb(0,0,0)" stroke="rgb(0,0,0)" stroke-width="1" opacity="0.9254901960784314" d="M 86.5 84 L 89 84.5 L 86.5 85 L 86.5 84 Z " /><path fill="rgb(0,0,0)" stroke="rgb(0,0,0)" stroke-width="1" opacity="0.9254901960784314" d="M 213.5 84 L 214.5 86 L 213.5 84 Z " /><path fill="rgb(0,0,0)" stroke="rgb(0,0,0)" stroke-width="1" opacity="0.9254901960784314" d="M 98.5 87 L 99.5 89 L 98.5 87 Z " /><path fill="rgb(0,0,0)" stroke="rgb(0,0,0)" stroke-width="1" opacity="0.9254901960784314" d="M 231.5 89 L 230.5 91 L 231.5 89 Z " /><path fill="rgb(0,0,0)" stroke="rgb(0,0,0)" stroke-width="1" opacity="0.9254901960784314" d="M 101.5 91 L 102.5 93 L 101.5 91 Z " /><path fill="rgb(0,0,0)" stroke="rgb(0,0,0)" stroke-width="1" opacity="0.9254901960784314" d="M 109.5 94 L 110.5 96 L 109.5 94 Z " /><path fill="rgb(0,0,0)" stroke="rgb(0,0,0)" stroke-width="1" opacity="0.9254901960784314" d="M 117.5 95 L 121 95.5 L 117.5 96 L 117.5 95 Z " /><path fill="rgb(0,0,0)" stroke="rgb(0,0,0)" stroke-width="1" opacity="0.9254901960784314" d="M 123.5 101 L 125.5 104 L 123.5 101 Z " /><path fill="rgb(0,0,0)" stroke="rgb(0,0,0)" stroke-width="1" opacity="0.9254901960784314" d="M 125.5 112 L 123.5 115 L 125.5 112 Z " /><path fill="rgb(0,0,0)" stroke="rgb(0,0,0)" stroke-width="1" opacity="0.9254901960784314" d="M 129.5 114 L 128.5 116 L 129.5 114 Z " /><path fill="rgb(0,0,0)" stroke="rgb(0,0,0)" stroke-width="1" opacity="0.9254901960784314" d="M 108.5 115 L 111.5 119 L 108.5 115 Z " /><path fill="rgb(0,0,0)" stroke="rgb(0,0,0)" stroke-width="1" opacity="0.9254901960784314" d="M 128.5 119 L 129.5 121 L 128.5 119 Z " /><path fill="rgb(0,0,0)" stroke="rgb(0,0,0)" stroke-width="1" opacity="0.9254901960784314" d="M 117.5 120 L 120 120.5 L 117.5 121 L 117.5 120 Z " /><path fill="rgb(0,0,0)" stroke="rgb(0,0,0)" stroke-width="1" opacity="0.9254901960784314" d="M 131.5 123 L 132.5 125 L 131.5 123 Z " /><path fill="rgb(0,0,0)" stroke="rgb(0,0,0)" stroke-width="1" opacity="0.9254901960784314" d="M 127.5 125 L 128.5 127 L 127.5 125 Z " /><path fill="rgb(0,0,0)" stroke="rgb(0,0,0)" stroke-width="1" opacity="0.9254901960784314" d="M 134.5 127 L 135.5 129 L 134.5 127 Z " /><path fill="rgb(0,0,0)" stroke="rgb(0,0,0)" stroke-width="1" opacity="0.9254901960784314" d="M 130.5 129 L 131.5 131 L 130.5 129 Z " /><path fill="rgb(0,0,0)" stroke="rgb(0,0,0)" stroke-width="1" opacity="0.9254901960784314" d="M 133.5 133 L 134.5 135 L 133.5 133 Z " /><path fill="rgb(0,0,0)" stroke="rgb(0,0,0)" stroke-width="1" opacity="0.9254901960784314" d="M 136.5 137 L 137.5 139 L 136.5 137 Z " /><path fill="rgb(0,0,0)" stroke="rgb(0,0,0)" stroke-width="1" opacity="0.9254901960784314" d="M 144.5 140 L 145.5 142 L 144.5 140 Z " /><path fill="rgb(0,0,0)" stroke="rgb(0,0,0)" stroke-width="1" opacity="0.9254901960784314" d="M 239.5 149 L 242 149.5 L 239.5 150 L 239.5 149 Z " /><path fill="rgb(0,0,0)" stroke="rgb(0,0,0)" stroke-width="1" opacity="0.9254901960784314" d="M 167.5 153 L 170 153.5 L 167.5 154 L 167.5 153 Z " /><path fill="rgb(0,0,0)" stroke="rgb(0,0,0)" stroke-width="1" opacity="0.9254901960784314" d="M 190.5 155 L 193 155.5 L 190.5 156 L 190.5 155 Z " /><path fill="rgb(0,0,0)" stroke="rgb(0,0,0)" stroke-width="1" opacity="0.9254901960784314" d="M 201.5 156 L 204 156.5 L 201.5 157 L 201.5 156 Z " /><path fill="rgb(0,0,0)" stroke="rgb(0,0,0)" stroke-width="1" opacity="0.9254901960784314" d="M 213.5 157 L 216 157.5 L 213.5 158 L 213.5 157 Z " /><path fill="rgb(0,0,0)" stroke="rgb(0,0,0)" stroke-width="1" opacity="0.9254901960784314" d="M 228.5 157 L 227.5 159 L 224 158.5 L 228.5 157 Z " /><path fill="rgb(0,0,0)" stroke="rgb(0,0,0)" stroke-width="1" opacity="0.9254901960784314" d="M 173.5 158 L 176 158.5 L 173.5 159 L 173.5 158 Z " /><path fill="rgb(0,0,0)" stroke="rgb(0,0,0)" stroke-width="1" opacity="0.9254901960784314" d="M 158.5 159 L 157.5 161 L 158.5 159 Z " /><path fill="rgb(0,0,0)" stroke="rgb(0,0,0)" stroke-width="1" opacity="0.9254901960784314" d="M 184.5 159 L 187 159.5 L 182.5 162 L 178.5 164 L 179.5 162 L 184.5 159 Z " /><path fill="rgb(0,0,0)" stroke="rgb(0,0,0)" stroke-width="1" opacity="0.9254901960784314" d="M 196.5 160 L 199 160.5 L 196.5 161 L 196.5 160 Z " /><path fill="rgb(0,0,0)" stroke="rgb(0,0,0)" stroke-width="1" opacity="0.9254901960784314" d="M 162.5 161 L 159.5 165 L 162.5 161 Z " /><path fill="rgb(0,0,0)" stroke="rgb(0,0,0)" stroke-width="1" opacity="0.9254901960784314" d="M 207.5 161 L 210 161.5 L 207.5 162 L 207.5 161 Z " /><path fill="rgb(0,0,0)" stroke="rgb(0,0,0)" stroke-width="1" opacity="0.9254901960784314" d="M 189.5 163 L 195 163.5 L 189.5 164 L 189.5 163 Z " /><path fill="rgb(0,0,0)" stroke="rgb(0,0,0)" stroke-width="1" opacity="0.9254901960784314" d="M 198.5 164 L 199.5 166 L 198.5 164 Z " /><path fill="rgb(0,0,0)" stroke="rgb(0,0,0)" stroke-width="1" opacity="0.9254901960784314" d="M 186.5 168 L 185.5 170 L 186.5 168 Z " /><path fill="rgb(0,0,0)" stroke="rgb(0,0,0)" stroke-width="1" opacity="0.9254901960784314" d="M 197.5 168 L 203 171.5 L 201.5 171 Q 197.5 170.5 197.5 168 Z " /><path fill="rgb(0,0,0)" stroke="rgb(0,0,0)" stroke-width="1" opacity="0.9254901960784314" d="M 177.5 169 L 176.5 171 L 177.5 169 Z " /><path fill="rgb(0,0,0)" stroke="rgb(0,0,0)" stroke-width="1" opacity="0.9254901960784314" d="M 150.5 170 L 151 172.5 L 150 172.5 L 150.5 170 Z " /><path fill="rgb(0,0,0)" stroke="rgb(0,0,0)" stroke-width="1" opacity="0.9254901960784314" d="M 60.5 171 L 61.5 173 L 60.5 171 Z " /><path fill="rgb(0,0,0)" stroke="rgb(0,0,0)" stroke-width="1" opacity="0.9254901960784314" d="M 190.5 172 L 195 172.5 L 190.5 173 L 190.5 172 Z " /><path fill="rgb(0,0,0)" stroke="rgb(0,0,0)" stroke-width="1" opacity="0.9254901960784314" d="M 196.5 172 L 203 176.5 L 202.5 178 L 202 176 Q 197.1 175.2 196.5 172 Z " /><path fill="rgb(0,0,0)" stroke="rgb(0,0,0)" stroke-width="1" opacity="0.9254901960784314" d="M 50.5 173 L 48.5 176 L 50.5 173 Z " /><path fill="rgb(0,0,0)" stroke="rgb(0,0,0)" stroke-width="1" opacity="0.9254901960784314" d="M 178.5 174 L 178 175.5 L 175.5 180 L 176 178.5 L 178.5 174 Z " /><path fill="rgb(0,0,0)" stroke="rgb(0,0,0)" stroke-width="1" opacity="0.9254901960784314" d="M 238.5 174 L 242 174.5 L 238.5 175 L 238.5 174 Z " /><path fill="rgb(0,0,0)" stroke="rgb(0,0,0)" stroke-width="1" opacity="0.9254901960784314" d="M 54.5 175 L 53.5 177 L 54.5 175 Z " /><path fill="rgb(0,0,0)" stroke="rgb(0,0,0)" stroke-width="1" opacity="0.9254901960784314" d="M 183.5 175 L 182.5 177 L 183.5 175 Z " /><path fill="rgb(0,0,0)" stroke="rgb(0,0,0)" stroke-width="1" opacity="0.9254901960784314" d="M 65.5 176 L 66.5 178 L 65.5 176 Z " /><path fill="rgb(0,0,0)" stroke="rgb(0,0,0)" stroke-width="1" opacity="0.9254901960784314" d="M 189.5 176 L 188.5 178 L 189.5 176 Z " /><path fill="rgb(0,0,0)" stroke="rgb(0,0,0)" stroke-width="1" opacity="0.9254901960784314" d="M 194.5 176 L 200 180.5 L 196.5 178 L 194.5 176 Z " /><path fill="rgb(0,0,0)" stroke="rgb(0,0,0)" stroke-width="1" opacity="0.9254901960784314" d="M 155.5 177 L 156 179.5 L 155 179.5 L 155.5 177 Z " /><path fill="rgb(0,0,0)" stroke="rgb(0,0,0)" stroke-width="1" opacity="0.9254901960784314" d="M 186.5 178 L 185.5 180 L 186.5 178 Z " /><path fill="rgb(0,0,0)" stroke="rgb(0,0,0)" stroke-width="1" opacity="0.9254901960784314" d="M 190.5 180 L 187.5 184 L 190.5 180 Z " /><path fill="rgb(0,0,0)" stroke="rgb(0,0,0)" stroke-width="1" opacity="0.9254901960784314" d="M 184.5 181 L 183.5 183 L 184.5 181 Z " /><path fill="rgb(0,0,0)" stroke="rgb(0,0,0)" stroke-width="1" opacity="0.9254901960784314" d="M 52.5 182 L 54.5 185 L 52.5 182 Z " /><path fill="rgb(0,0,0)" stroke="rgb(0,0,0)" stroke-width="1" opacity="0.9254901960784314" d="M 66.5 182 L 65.5 184 L 66.5 182 Z " /><path fill="rgb(0,0,0)" stroke="rgb(0,0,0)" stroke-width="1" opacity="0.9254901960784314" d="M 179.5 183 L 180 188.5 L 179 188.5 L 179.5 183 Z " /><path fill="rgb(0,0,0)" stroke="rgb(0,0,0)" stroke-width="1" opacity="0.9254901960784314" d="M 48.5 184 L 50.5 187 L 48.5 184 Z " /><path fill="rgb(0,0,0)" stroke="rgb(0,0,0)" stroke-width="1" opacity="0.9254901960784314" d="M 151.5 184 L 152 186.5 L 151 186.5 L 151.5 184 Z " /><path fill="rgb(0,0,0)" stroke="rgb(0,0,0)" stroke-width="1" opacity="0.9254901960784314" d="M 57.5 185 L 56.5 187 L 57.5 185 Z " /><path fill="rgb(0,0,0)" stroke="rgb(0,0,0)" stroke-width="1" opacity="0.9254901960784314" d="M 61.5 187 L 60.5 189 L 61.5 187 Z " /><path fill="rgb(0,0,0)" stroke="rgb(0,0,0)" stroke-width="1" opacity="0.9254901960784314" d="M 196.5 189 L 201 195.5 L 199 194.5 L 196.5 189 Z " /><path fill="rgb(0,0,0)" stroke="rgb(0,0,0)" stroke-width="1" opacity="0.9254901960784314" d="M 201.5 189 L 203 191.5 L 202 191.5 L 201.5 189 Z " /><path fill="rgb(0,0,0)" stroke="rgb(0,0,0)" stroke-width="1" opacity="0.9254901960784314" d="M 147.5 190 L 144.5 194 L 147.5 190 Z " /><path fill="rgb(0,0,0)" stroke="rgb(0,0,0)" stroke-width="1" opacity="0.9254901960784314" d="M 192.5 190 L 193.5 192 L 192.5 190 Z " /><path fill="rgb(0,0,0)" stroke="rgb(0,0,0)" stroke-width="1" opacity="0.9254901960784314" d="M 163.5 191 L 164.5 193 L 163.5 191 Z " /><path fill="rgb(0,0,0)" stroke="rgb(0,0,0)" stroke-width="1" opacity="0.9254901960784314" d="M 175.5 193 L 175 194.5 L 173.5 197 L 172 196.5 L 175.5 193 Z " /><path fill="rgb(0,0,0)" stroke="rgb(0,0,0)" stroke-width="1" opacity="0.9254901960784314" d="M 189.5 193 L 191 196.5 L 190 196.5 L 189.5 193 Z " /><path fill="rgb(0,0,0)" stroke="rgb(0,0,0)" stroke-width="1" opacity="0.9254901960784314" d="M 194.5 193 L 197 197.5 L 196 197.5 L 194.5 193 Z " /><path fill="rgb(0,0,0)" stroke="rgb(0,0,0)" stroke-width="1" opacity="0.9254901960784314" d="M 149.5 194 L 148.5 196 L 149.5 194 Z " /><path fill="rgb(0,0,0)" stroke="rgb(0,0,0)" stroke-width="1" opacity="0.9254901960784314" d="M 192.5 198 L 194 200.5 L 192 199.5 L 192.5 198 Z " /><path fill="rgb(0,0,0)" stroke="rgb(0,0,0)" stroke-width="1" opacity="0.9254901960784314" d="M 212.5 198 L 216 198.5 L 212.5 199 L 212.5 198 Z " /><path fill="rgb(0,0,0)" stroke="rgb(0,0,0)" stroke-width="1" opacity="0.9254901960784314" d="M 177.5 199 L 176.5 201 L 177.5 199 Z " /><path fill="rgb(0,0,0)" stroke="rgb(0,0,0)" stroke-width="1" opacity="0.9254901960784314" d="M 167.5 200 L 168.5 202 L 167.5 200 Z " /><path fill="rgb(0,0,0)" stroke="rgb(0,0,0)" stroke-width="1" opacity="0.9254901960784314" d="M 222.5 201 L 224.5 204 L 222.5 201 Z " /><path fill="rgb(0,0,0)" stroke="rgb(0,0,0)" stroke-width="1" opacity="0.9254901960784314" d="M 186.5 204 L 188 204.5 L 185.5 206 L 186.5 204 Z " /><path fill="rgb(0,0,0)" stroke="rgb(0,0,0)" stroke-width="1" opacity="0.9254901960784314" d="M 148.5 205 L 150.5 208 L 148.5 205 Z " /><path fill="rgb(0,0,0)" stroke="rgb(0,0,0)" stroke-width="1" opacity="0.9254901960784314" d="M 192.5 205 L 194 207.5 L 192 206.5 L 192.5 205 Z " /><path fill="rgb(0,0,0)" stroke="rgb(0,0,0)" stroke-width="1" opacity="0.9254901960784314" d="M 164.5 208 L 162.5 211 L 164.5 208 Z " /><path fill="rgb(0,0,0)" stroke="rgb(0,0,0)" stroke-width="1" opacity="0.9254901960784314" d="M 207.5 215 L 209.5 218 L 207.5 215 Z " /><path fill="rgb(0,0,0)" stroke="rgb(0,0,0)" stroke-width="1" opacity="0.9254901960784314" d="M 203.5 217 L 204.5 219 L 203.5 217 Z " /><path fill="rgb(0,0,0)" stroke="rgb(0,0,0)" stroke-width="1" opacity="0.9254901960784314" d="M 223.5 219 L 222.5 221 L 223.5 219 Z " /><path fill="rgb(0,0,0)" stroke="rgb(0,0,0)" stroke-width="1" opacity="0.9254901960784314" d="M 221.5 249 L 227 249.5 L 221.5 250 L 221.5 249 Z " /><path fill="rgb(0,0,0)" stroke="rgb(0,0,0)" stroke-width="1" opacity="0.9254901960784314" d="M 70.5 250 L 73 250.5 L 70.5 251 L 70.5 250 Z " /><path fill="rgb(0,0,0)" stroke="rgb(0,0,0)" stroke-width="1" opacity="0.9254901960784314" d="M 138.5 250 L 141 250.5 L 138.5 251 L 138.5 250 Z " /><path fill="rgb(0,0,0)" stroke="rgb(0,0,0)" stroke-width="1" opacity="0.9254901960784314" d="M 180.5 250 L 183 250.5 L 180.5 251 L 180.5 250 Z " /><path fill="rgb(0,0,0)" stroke="rgb(0,0,0)" stroke-width="1" opacity="0.9254901960784314" d="M 82.5 251 L 85 251.5 L 82.5 252 L 82.5 251 Z " /><path fill="rgb(0,0,0)" stroke="rgb(0,0,0)" stroke-width="1" opacity="0.9254901960784314" d="M 95.5 251 L 98 251.5 L 95.5 252 L 95.5 251 Z " /><path fill="rgb(0,0,0)" stroke="rgb(0,0,0)" stroke-width="1" opacity="0.9254901960784314" d="M 132.5 251 L 133.5 253 L 132.5 251 Z " /><path fill="rgb(0,0,0)" stroke="rgb(0,0,0)" stroke-width="1" opacity="0.9254901960784314" d="M 150.5 251 L 153 251.5 L 150.5 252 L 150.5 251 Z " /><path fill="rgb(0,0,0)" stroke="rgb(0,0,0)" stroke-width="1" opacity="0.9254901960784314" d="M 191.5 251 L 194 251.5 L 191.5 252 L 191.5 251 Z " /><path fill="rgb(0,0,0)" stroke="rgb(0,0,0)" stroke-width="1" opacity="0.9254901960784314" d="M 183.5 252 L 184.5 254 L 183.5 252 Z " /><path fill="rgb(0,0,0)" stroke="rgb(0,0,0)" stroke-width="1" opacity="0.9254901960784314" d="M 50.5 253 L 50.5 256 Q 47.5 254.5 50.5 253 Z " /><path fill="rgb(0,0,0)" stroke="rgb(0,0,0)" stroke-width="1" opacity="0.9254901960784314" d="M 68.5 254 L 69.5 256 L 68.5 254 Z " /><path fill="rgb(0,0,0)" stroke="rgb(0,0,0)" stroke-width="1" opacity="0.9254901960784314" d="M 79.5 254 L 78.5 256 L 79.5 254 Z " /><path fill="rgb(0,0,0)" stroke="rgb(0,0,0)" stroke-width="1" opacity="0.9254901960784314" d="M 164.5 254 L 165 256.5 L 164 256.5 L 164.5 254 Z " /><path fill="rgb(0,0,0)" stroke="rgb(0,0,0)" stroke-width="1" opacity="0.9254901960784314" d="M 208.5 254 L 207.5 256 L 208.5 254 Z " /><path fill="rgb(0,0,0)" stroke="rgb(0,0,0)" stroke-width="1" opacity="0.9254901960784314" d="M 69.5 257 L 70 259.5 L 69 259.5 L 69.5 257 Z " /><path fill="rgb(0,0,0)" stroke="rgb(0,0,0)" stroke-width="1" opacity="0.9254901960784314" d="M 222.5 257 L 223.5 259 L 222.5 257 Z " /><path fill="rgb(0,0,0)" stroke="rgb(0,0,0)" stroke-width="1" opacity="0.9254901960784314" d="M 53.5 258 L 54.5 260 L 53.5 258 Z " /><path fill="rgb(0,0,0)" stroke="rgb(0,0,0)" stroke-width="1" opacity="0.9254901960784314" d="M 104.5 259 L 106 261.5 L 104 260.5 L 104.5 259 Z " /><path fill="rgb(0,0,0)" stroke="rgb(0,0,0)" stroke-width="1" opacity="0.9254901960784314" d="M 40.5 260 L 38.5 263 L 40.5 260 Z " /><path fill="rgb(0,0,0)" stroke="rgb(0,0,0)" stroke-width="1" opacity="0.9254901960784314" d="M 225.5 260 L 228 260.5 L 225.5 261 L 225.5 260 Z " /><path fill="rgb(0,0,0)" stroke="rgb(0,0,0)" stroke-width="1" opacity="0.9254901960784314" d="M 26.5 261 L 28 261.5 L 25.5 263 L 26.5 261 Z " /><path fill="rgb(0,0,0)" stroke="rgb(0,0,0)" stroke-width="1" opacity="0.9254901960784314" d="M 237.5 261 Q 239.8 260.3 239 262.5 L 236 264.5 Q 239.1 262.8 237.5 261 Z " /><path fill="rgb(0,0,0)" stroke="rgb(0,0,0)" stroke-width="1" opacity="0.9254901960784314" d="M 204.5 262 L 205 265.5 L 204 265.5 L 204.5 262 Z " /><path fill="rgb(0,0,0)" stroke="rgb(0,0,0)" stroke-width="1" opacity="0.9254901960784314" d="M 222.5 262 L 223 267.5 L 222 267.5 L 222.5 262 Z " /><path fill="rgb(0,0,0)" stroke="rgb(0,0,0)" stroke-width="1" opacity="0.9254901960784314" d="M 29.5 263 L 28.5 265 L 29.5 263 Z " /><path fill="rgb(0,0,0)" stroke="rgb(0,0,0)" stroke-width="1" opacity="0.9254901960784314" d="M 175.5 264 L 176.5 266 L 175.5 264 Z " /><path fill="rgb(0,0,0)" stroke="rgb(0,0,0)" stroke-width="1" opacity="0.9254901960784314" d="M 136.5 265 L 137 267.5 L 136 267.5 L 136.5 265 Z " /><path fill="rgb(0,0,0)" stroke="rgb(0,0,0)" stroke-width="1" opacity="0.9254901960784314" d="M 44.5 266 L 43.5 268 L 44.5 266 Z " /><path fill="rgb(0,0,0)" stroke="rgb(0,0,0)" stroke-width="1" opacity="0.9254901960784314" d="M 68.5 268 L 69 270.5 L 68 270.5 L 68.5 268 Z " /><path fill="rgb(0,0,0)" stroke="rgb(0,0,0)" stroke-width="1" opacity="0.9254901960784314" d="M 163.5 269 L 164 271.5 L 163 271.5 L 163.5 269 Z " /><path fill="rgb(0,0,0)" stroke="rgb(0,0,0)" stroke-width="1" opacity="0.9254901960784314" d="M 219.5 269 L 220.5 271 L 219.5 269 Z " /><path fill="rgb(0,0,0)" stroke="rgb(0,0,0)" stroke-width="1" opacity="0.9254901960784314" d="M 54.5 272 L 51.5 276 L 54.5 272 Z " /><path fill="rgb(0,0,0)" stroke="rgb(0,0,0)" stroke-width="1" opacity="0.9254901960784314" d="M 207.5 272 L 210.5 276 L 207.5 272 Z " /><path fill="rgb(0,0,0)" stroke="rgb(0,0,0)" stroke-width="1" opacity="0.9254901960784314" d="M 93.5 276 L 92.5 278 L 93.5 276 Z " /><path fill="rgb(0,0,0)" stroke="rgb(0,0,0)" stroke-width="1" opacity="0.9254901960784314" d="M 135.5 276 L 134.5 278 L 135.5 276 Z " /><path fill="rgb(0,0,0)" stroke="rgb(0,0,0)" stroke-width="1" opacity="0.9254901960784314" d="M 146.5 278 L 149 278.5 L 146.5 279 L 146.5 278 Z " /><path fill="rgb(0,0,0)" stroke="rgb(0,0,0)" stroke-width="1" opacity="0.9254901960784314" d="M 166.5 278 L 169 278.5 L 166.5 279 L 166.5 278 Z " /><path fill="rgb(0,0,0)" stroke="rgb(0,0,0)" stroke-width="1" opacity="0.9254901960784314" d="M 189.5 278 L 193 278.5 L 189.5 279 L 189.5 278 Z " /><path fill="rgb(0,0,0)" stroke="rgb(0,0,0)" stroke-width="1" opacity="0.9254901960784314" d="M 68.5 279 L 71 279.5 L 68.5 280 L 68.5 279 Z " /><path fill="rgb(0,0,0)" stroke="rgb(0,0,0)" stroke-width="1" opacity="0.9254901960784314" d="M 105.5 279 L 108 279.5 L 105.5 280 L 105.5 279 Z " /><path fill="rgb(0,0,0)" stroke="rgb(0,0,0)" stroke-width="1" opacity="0.9254901960784314" d="M 177.5 279 L 180 279.5 L 177.5 280 L 177.5 279 Z " /><path fill="rgb(0,0,0)" stroke="rgb(0,0,0)" stroke-width="1" opacity="0.9254901960784314" d="M 220.5 279 L 226 279.5 L 220.5 280 L 220.5 279 Z " /><path fill="rgb(0,0,0)" stroke="rgb(0,0,0)" stroke-width="1" opacity="0.996078431372549" d="M 82.5 65 L 81.5 67 L 82.5 65 Z " /><path fill="rgb(0,0,0)" stroke="rgb(0,0,0)" stroke-width="1" opacity="0.996078431372549" d="M 232.5 67 L 234.5 70 L 232.5 67 Z " /><path fill="rgb(0,0,0)" stroke="rgb(0,0,0)" stroke-width="1" opacity="0.996078431372549" d="M 217.5 72 L 215.5 75 L 217.5 72 Z " /><path fill="rgb(0,0,0)" stroke="rgb(0,0,0)" stroke-width="1" opacity="0.996078431372549" d="M 235.5 84 L 234.5 86 L 235.5 84 Z " /><path fill="rgb(0,0,0)" stroke="rgb(0,0,0)" stroke-width="1" opacity="0.996078431372549" d="M 215.5 86 L 216.5 88 L 215.5 86 Z " /><path fill="rgb(0,0,0)" stroke="rgb(0,0,0)" stroke-width="1" opacity="0.996078431372549" d="M 113.5 101 L 112.5 103 L 113.5 101 Z " /><path fill="rgb(0,0,0)" stroke="rgb(0,0,0)" stroke-width="1" opacity="0.996078431372549" d="M 112.5 113 L 113.5 115 L 112.5 113 Z " /><path fill="rgb(0,0,0)" stroke="rgb(0,0,0)" stroke-width="1" opacity="0.996078431372549" d="M 203.5 172 L 204.5 174 L 203.5 172 Z " /><path fill="rgb(0,0,0)" stroke="rgb(0,0,0)" stroke-width="1" opacity="0.996078431372549" d="M 52.5 177 L 51.5 179 L 52.5 177 Z " /><path fill="rgb(0,0,0)" stroke="rgb(0,0,0)" stroke-width="1" opacity="0.996078431372549" d="M 203.5 192 L 204.5 194 L 203.5 192 Z " /><path fill="rgb(0,0,0)" stroke="rgb(0,0,0)" stroke-width="1" opacity="0.996078431372549" d="M 201.5 196 L 202.5 198 L 201.5 196 Z " /><path fill="rgb(0,0,0)" stroke="rgb(0,0,0)" stroke-width="1" opacity="0.996078431372549" d="M 197.5 198 L 200.5 202 L 197.5 198 Z " /><path fill="rgb(0,0,0)" stroke="rgb(0,0,0)" stroke-width="1" opacity="0.996078431372549" d="M 194.5 201 L 197.5 205 L 194.5 201 Z " /><path fill="rgb(0,0,0)" stroke="rgb(0,0,0)" stroke-width="1" opacity="0.996078431372549" d="M 219.5 204 L 220.5 206 L 219.5 204 Z " /><path fill="rgb(0,0,0)" stroke="rgb(0,0,0)" stroke-width="1" opacity="0.996078431372549" d="M 205.5 219 L 206.5 221 L 205.5 219 Z " /><path fill="rgb(0,0,0)" stroke="rgb(0,0,0)" stroke-width="1" opacity="0.996078431372549" d="M 49.5 250 Q 53.9 248.5 53 251.5 L 49 254.5 L 53 257.5 L 55 261.5 L 54 261.5 L 48 254.5 L 52 251.5 Q 48.7 251.6 49.5 250 Z " /><path fill="rgb(0,0,0)" stroke="rgb(0,0,0)" stroke-width="1" opacity="0.996078431372549" d="M 110.5 250 L 113 250.5 L 110.5 251 L 110.5 250 Z " /><path fill="rgb(0,0,0)" stroke="rgb(0,0,0)" stroke-width="1" opacity="0.996078431372549" d="M 174.5 250 L 177 250.5 L 174.5 251 L 174.5 250 Z " /><path fill="rgb(0,0,0)" stroke="rgb(0,0,0)" stroke-width="1" opacity="0.996078431372549" d="M 218.5 250 L 221 250.5 L 218.5 251 L 218.5 250 Z " /><path fill="rgb(0,0,0)" stroke="rgb(0,0,0)" stroke-width="1" opacity="0.996078431372549" d="M 41.5 251 L 45 251.5 L 41.5 252 L 41.5 251 Z " /><path fill="rgb(0,0,0)" stroke="rgb(0,0,0)" stroke-width="1" opacity="0.996078431372549" d="M 65.5 251 L 71 255.5 L 70.5 257 L 68.5 254 L 65.5 251 Z " /><path fill="rgb(0,0,0)" stroke="rgb(0,0,0)" stroke-width="1" opacity="0.996078431372549" d="M 73.5 251 L 78 251.5 L 73.5 252 L 73.5 251 Z " /><path fill="rgb(0,0,0)" stroke="rgb(0,0,0)" stroke-width="1" opacity="0.996078431372549" d="M 101.5 251 L 104 251.5 L 101.5 252 L 101.5 251 Z " /><path fill="rgb(0,0,0)" stroke="rgb(0,0,0)" stroke-width="1" opacity="0.996078431372549" d="M 133.5 251 L 138 254.5 L 136.5 255 L 133.5 251 Z " /><path fill="rgb(0,0,0)" stroke="rgb(0,0,0)" stroke-width="1" opacity="0.996078431372549" d="M 141.5 251 L 146 251.5 L 141.5 252 L 141.5 251 Z " /><path fill="rgb(0,0,0)" stroke="rgb(0,0,0)" stroke-width="1" opacity="0.996078431372549" d="M 167.5 251 L 170 251.5 L 167.5 252 L 167.5 251 Z " /><path fill="rgb(0,0,0)" stroke="rgb(0,0,0)" stroke-width="1" opacity="0.996078431372549" d="M 184 251 L 188 251.5 L 184.5 253 L 184 251 Z " /><path fill="rgb(0,0,0)" stroke="rgb(0,0,0)" stroke-width="1" opacity="0.996078431372549" d="M 214.5 251 L 216 251.5 L 207 257.5 L 205.5 262 L 205 259.5 L 210.5 253 L 214.5 251 Z " /><path fill="rgb(0,0,0)" stroke="rgb(0,0,0)" stroke-width="1" opacity="0.996078431372549" d="M 231.5 251 L 236 252 L 235.5 254 L 231.5 252 L 231.5 251 Z " /><path fill="rgb(0,0,0)" stroke="rgb(0,0,0)" stroke-width="1" opacity="0.996078431372549" d="M 83.5 252 L 82.5 254 L 80 253.5 L 83.5 252 Z " /><path fill="rgb(0,0,0)" stroke="rgb(0,0,0)" stroke-width="1" opacity="0.996078431372549" d="M 94.5 252 L 98 254.5 L 96.5 255 L 94.5 252 Z " /><path fill="rgb(0,0,0)" stroke="rgb(0,0,0)" stroke-width="1" opacity="0.996078431372549" d="M 119.5 252 L 121.5 255 L 119.5 252 Z " /><path fill="rgb(0,0,0)" stroke="rgb(0,0,0)" stroke-width="1" opacity="0.996078431372549" d="M 162.5 252 L 165 253.5 L 163.5 254 L 162.5 252 Z " /><path fill="rgb(0,0,0)" stroke="rgb(0,0,0)" stroke-width="1" opacity="0.996078431372549" d="M 194.5 252 Q 196.8 251.3 196 253.5 L 194.5 257 L 194 254.5 L 194.5 252 Z " /><path fill="rgb(0,0,0)" stroke="rgb(0,0,0)" stroke-width="1" opacity="0.996078431372549" d="M 147.5 253 L 149 253.5 L 145.5 256 L 145 254 L 147.5 253 Z " /><path fill="rgb(0,0,0)" stroke="rgb(0,0,0)" stroke-width="1" opacity="0.996078431372549" d="M 41.5 254 L 45 256.5 L 46 259.5 L 45 259.5 L 42.5 255 L 41.5 254 Z " /><path fill="rgb(0,0,0)" stroke="rgb(0,0,0)" stroke-width="1" opacity="0.996078431372549" d="M 108.5 254 Q 110.8 253.3 110 255.5 L 108.5 254 Z " /><path fill="rgb(0,0,0)" stroke="rgb(0,0,0)" stroke-width="1" opacity="0.996078431372549" d="M 178.5 254 L 181 259.5 L 180 259.5 L 178.5 254 Z " /><path fill="rgb(0,0,0)" stroke="rgb(0,0,0)" stroke-width="1" opacity="0.996078431372549" d="M 185.5 254 L 186 257.5 L 185 257.5 L 185.5 254 Z " /><path fill="rgb(0,0,0)" stroke="rgb(0,0,0)" stroke-width="1" opacity="0.996078431372549" d="M 228.5 254 L 236 258.5 L 233.5 257 L 228.5 255 L 228.5 254 Z " /><path fill="rgb(0,0,0)" stroke="rgb(0,0,0)" stroke-width="1" opacity="0.996078431372549" d="M 221.5 255 L 219 258.5 L 217.5 262 L 217 260.5 L 221.5 255 Z " /><path fill="rgb(0,0,0)" stroke="rgb(0,0,0)" stroke-width="1" opacity="0.996078431372549" d="M 122.5 256 Q 125.5 257.5 124 263.5 L 123 263.5 Q 123.5 257.5 122.5 256 Z " /><path fill="rgb(0,0,0)" stroke="rgb(0,0,0)" stroke-width="1" opacity="0.996078431372549" d="M 146.5 258 L 147 260.5 L 146 260.5 L 146.5 258 Z " /><path fill="rgb(0,0,0)" stroke="rgb(0,0,0)" stroke-width="1" opacity="0.996078431372549" d="M 172.5 258 L 186 277.5 L 184 276.5 L 173.5 261 L 172.5 263 L 172 261.5 L 172 259.5 L 172.5 258 Z " /><path fill="rgb(0,0,0)" stroke="rgb(0,0,0)" stroke-width="1" opacity="0.996078431372549" d="M 97.5 259 L 98 261.5 L 97 261.5 L 97.5 259 Z " /><path fill="rgb(0,0,0)" stroke="rgb(0,0,0)" stroke-width="1" opacity="0.996078431372549" d="M 108.5 259 L 105.5 263 L 108.5 259 Z " /><path fill="rgb(0,0,0)" stroke="rgb(0,0,0)" stroke-width="1" opacity="0.996078431372549" d="M 103.5 260 L 104 262.5 L 103 262.5 L 103.5 260 Z " /><path fill="rgb(0,0,0)" stroke="rgb(0,0,0)" stroke-width="1" opacity="0.996078431372549" d="M 30.5 261 L 33 261.5 L 29.5 263 L 30.5 261 Z " /><path fill="rgb(0,0,0)" stroke="rgb(0,0,0)" stroke-width="1" opacity="0.996078431372549" d="M 38.5 261 L 37.5 263 L 38.5 261 Z " /><path fill="rgb(0,0,0)" stroke="rgb(0,0,0)" stroke-width="1" opacity="0.996078431372549" d="M 137.5 261 L 138 264.5 L 137 264.5 L 137.5 261 Z " /><path fill="rgb(0,0,0)" stroke="rgb(0,0,0)" stroke-width="1" opacity="0.996078431372549" d="M 181.5 261 L 185 267.5 L 184 267.5 L 181.5 261 Z " /><path fill="rgb(0,0,0)" stroke="rgb(0,0,0)" stroke-width="1" opacity="0.996078431372549" d="M 193.5 261 L 194 263.5 L 193 263.5 L 193.5 261 Z " /><path fill="rgb(0,0,0)" stroke="rgb(0,0,0)" stroke-width="1" opacity="0.996078431372549" d="M 228.5 261 L 232 261.5 L 228.5 262 L 228.5 261 Z " /><path fill="rgb(0,0,0)" stroke="rgb(0,0,0)" stroke-width="1" opacity="0.996078431372549" d="M 164.5 262 L 165 267.5 L 164 267.5 L 164.5 262 Z " /><path fill="rgb(0,0,0)" stroke="rgb(0,0,0)" stroke-width="1" opacity="0.996078431372549" d="M 236.5 263 L 236 264.5 L 235.5 267 L 235 264.5 L 236.5 263 Z " /><path fill="rgb(0,0,0)" stroke="rgb(0,0,0)" stroke-width="1" opacity="0.996078431372549" d="M 29.5 264 L 31 264.5 L 26 267.5 L 25.5 270 L 25 267.5 L 29.5 264 Z " /><path fill="rgb(0,0,0)" stroke="rgb(0,0,0)" stroke-width="1" opacity="0.996078431372549" d="M 69.5 264 L 70 267.5 L 69 267.5 L 69.5 264 Z " /><path fill="rgb(0,0,0)" stroke="rgb(0,0,0)" stroke-width="1" opacity="0.996078431372549" d="M 173.5 265 L 175 269.5 L 174 269.5 L 173.5 265 Z " /><path fill="rgb(0,0,0)" stroke="rgb(0,0,0)" stroke-width="1" opacity="0.996078431372549" d="M 186.5 265 L 187 268.5 L 185 269.5 L 186.5 265 Z " /><path fill="rgb(0,0,0)" stroke="rgb(0,0,0)" stroke-width="1" opacity="0.996078431372549" d="M 96.5 266 L 97 268.5 L 96 268.5 L 96.5 266 Z " /><path fill="rgb(0,0,0)" stroke="rgb(0,0,0)" stroke-width="1" opacity="0.996078431372549" d="M 122.5 266 L 123 267.5 Q 121 271.6 115.5 272 L 115.5 271 Q 120.3 270.8 122 267.5 L 122.5 266 Z " /><path fill="rgb(0,0,0)" stroke="rgb(0,0,0)" stroke-width="1" opacity="0.996078431372549" d="M 205.5 266 Q 206.9 273.1 212.5 276 L 214 276.5 L 212.5 277 L 206 270.5 L 205.5 266 Z " /><path fill="rgb(0,0,0)" stroke="rgb(0,0,0)" stroke-width="1" opacity="0.996078431372549" d="M 227.5 266 Q 230.1 265.2 229 268.5 L 227.5 272 L 227 269.5 L 228 267.5 L 227.5 266 Z " /><path fill="rgb(0,0,0)" stroke="rgb(0,0,0)" stroke-width="1" opacity="0.996078431372549" d="M 44.5 267 L 43.5 269 L 42 268.5 L 44.5 267 Z " /><path fill="rgb(0,0,0)" stroke="rgb(0,0,0)" stroke-width="1" opacity="0.996078431372549" d="M 192.5 268 L 193 270.5 L 192 270.5 L 192.5 268 Z " /><path fill="rgb(0,0,0)" stroke="rgb(0,0,0)" stroke-width="1" opacity="0.996078431372549" d="M 105.5 269 L 108 270.5 L 106.5 271 L 105 270.5 L 104.5 273 L 104 270.5 L 105.5 269 Z " /><path fill="rgb(0,0,0)" stroke="rgb(0,0,0)" stroke-width="1" opacity="0.996078431372549" d="M 218.5 269 L 220.5 272 L 218.5 269 Z " /><path fill="rgb(0,0,0)" stroke="rgb(0,0,0)" stroke-width="1" opacity="0.996078431372549" d="M 54.5 270 L 55 271.5 Q 52.6 277.1 45.5 278 L 45.5 277 Q 51.9 276.4 54 271.5 L 54.5 270 Z " /><path fill="rgb(0,0,0)" stroke="rgb(0,0,0)" stroke-width="1" opacity="0.996078431372549" d="M 175.5 271 L 176 273.5 L 175 273.5 L 175.5 271 Z " /><path fill="rgb(0,0,0)" stroke="rgb(0,0,0)" stroke-width="1" opacity="0.996078431372549" d="M 25.5 272 L 28.5 276 L 32 277.5 L 30.5 278 L 25 273.5 L 25.5 272 Z " /><path fill="rgb(0,0,0)" stroke="rgb(0,0,0)" stroke-width="1" opacity="0.996078431372549" d="M 81.5 272 L 82 274 L 87 276.5 Q 86 279 81.5 278 L 81.5 277 L 85 276.5 L 81 273.5 L 81.5 272 Z " /><path fill="rgb(0,0,0)" stroke="rgb(0,0,0)" stroke-width="1" opacity="0.996078431372549" d="M 136.5 272 L 137 275.5 L 136 275.5 L 136.5 272 Z " /><path fill="rgb(0,0,0)" stroke="rgb(0,0,0)" stroke-width="1" opacity="0.996078431372549" d="M 236.5 272 L 237 274.5 L 232.5 277 L 232.5 276 L 236 275 L 236.5 272 Z " /><path fill="rgb(0,0,0)" stroke="rgb(0,0,0)" stroke-width="1" opacity="0.996078431372549" d="M 149.5 273 L 155 276.5 L 149.5 278 L 149.5 277 L 153 276.5 L 149.5 273 Z " /><path fill="rgb(0,0,0)" stroke="rgb(0,0,0)" stroke-width="1" opacity="0.996078431372549" d="M 95.5 274 L 96 275.5 L 94 276.5 L 95.5 274 Z " /><path fill="rgb(0,0,0)" stroke="rgb(0,0,0)" stroke-width="1" opacity="0.996078431372549" d="M 68.5 275 L 69 276.5 Q 65.9 278.3 67.5 280 L 65 278.5 L 68 276.5 L 68.5 275 Z " /><path fill="rgb(0,0,0)" stroke="rgb(0,0,0)" stroke-width="1" opacity="0.996078431372549" d="M 163.5 275 L 163.5 277 L 166 277.5 L 162.5 278 L 161.5 276 L 163.5 275 Z " /><path fill="rgb(0,0,0)" stroke="rgb(0,0,0)" stroke-width="1" opacity="0.996078431372549" d="M 191.5 275 L 194 276 L 193.5 278 L 191.5 275 Z " /><path fill="rgb(0,0,0)" stroke="rgb(0,0,0)" stroke-width="1" opacity="0.996078431372549" d="M 105.5 276 L 110 278.5 L 108 279.5 L 108.5 278 Q 104.8 277.8 105.5 276 Z " /><path fill="rgb(0,0,0)" stroke="rgb(0,0,0)" stroke-width="1" opacity="0.996078431372549" d="M 176.5 276 L 179 277.5 L 173.5 279 L 173.5 278 L 177 277.5 L 176.5 276 Z " /><path fill="rgb(0,0,0)" stroke="rgb(0,0,0)" stroke-width="1" opacity="0.996078431372549" d="M 135.5 277 L 135.5 280 Q 132.5 278.5 135.5 277 Z " /><path fill="rgb(0,0,0)" stroke="rgb(0,0,0)" stroke-width="1" opacity="0.996078431372549" d="M 34.5 278 L 43 278.5 L 34.5 279 L 34.5 278 Z " /><path fill="rgb(0,0,0)" stroke="rgb(0,0,0)" stroke-width="1" opacity="0.996078431372549" d="M 71.5 278 L 75 278.5 L 71.5 279 L 71.5 278 Z " /><path fill="rgb(0,0,0)" stroke="rgb(0,0,0)" stroke-width="1" opacity="0.996078431372549" d="M 101.5 278 L 105 278.5 L 101.5 279 L 101.5 278 Z " /><path fill="rgb(0,0,0)" stroke="rgb(0,0,0)" stroke-width="1" opacity="0.996078431372549" d="M 139.5 278 L 143 278.5 L 139.5 279 L 139.5 278 Z " /><path fill="rgb(0,0,0)" stroke="rgb(0,0,0)" stroke-width="1" opacity="0.5333333333333333" d="M 180.5 26 L 181.5 28 L 180.5 26 Z " /><path fill="rgb(0,0,0)" stroke="rgb(0,0,0)" stroke-width="1" opacity="0.5333333333333333" d="M 177.5 31 L 174.5 35 L 177.5 31 Z " /><path fill="rgb(0,0,0)" stroke="rgb(0,0,0)" stroke-width="1" opacity="0.5333333333333333" d="M 184.5 32 L 185.5 34 L 184.5 32 Z " /><path fill="rgb(0,0,0)" stroke="rgb(0,0,0)" stroke-width="1" opacity="0.5333333333333333" d="M 188.5 35 L 189.5 37 L 188.5 35 Z " /><path fill="rgb(0,0,0)" stroke="rgb(0,0,0)" stroke-width="1" opacity="0.5333333333333333" d="M 173.5 37 L 174.5 39 L 173.5 37 Z " /><path fill="rgb(0,0,0)" stroke="rgb(0,0,0)" stroke-width="1" opacity="0.5333333333333333" d="M 186.5 38 L 183.5 42 L 186.5 38 Z " /><path fill="rgb(0,0,0)" stroke="rgb(0,0,0)" stroke-width="1" opacity="0.5333333333333333" d="M 177.5 41 L 178.5 43 L 177.5 41 Z " /><path fill="rgb(0,0,0)" stroke="rgb(0,0,0)" stroke-width="1" opacity="0.5333333333333333" d="M 181.5 45 L 180.5 47 L 181.5 45 Z " /><path fill="rgb(0,0,0)" stroke="rgb(0,0,0)" stroke-width="1" opacity="0.5333333333333333" d="M 20.5 56 L 17.5 60 L 20.5 56 Z " /><path fill="rgb(0,0,0)" stroke="rgb(0,0,0)" stroke-width="1" opacity="0.5333333333333333" d="M 81.5 60 L 80.5 62 L 81.5 60 Z " /><path fill="rgb(0,0,0)" stroke="rgb(0,0,0)" stroke-width="1" opacity="0.5333333333333333" d="M 95.5 61 L 97.5 64 L 95.5 61 Z " /><path fill="rgb(0,0,0)" stroke="rgb(0,0,0)" stroke-width="1" opacity="0.5333333333333333" d="M 40.5 62 L 41 64 L 46 64.5 L 41.5 65 L 40.5 62 Z " /><path fill="rgb(0,0,0)" stroke="rgb(0,0,0)" stroke-width="1" opacity="0.5333333333333333" d="M 15.5 64 L 16 69.5 L 15 69.5 L 15.5 64 Z " /><path fill="rgb(0,0,0)" stroke="rgb(0,0,0)" stroke-width="1" opacity="0.5333333333333333" d="M 85.5 64 L 90 64.5 L 85.5 65 L 85.5 64 Z " /><path fill="rgb(0,0,0)" stroke="rgb(0,0,0)" stroke-width="1" opacity="0.5333333333333333" d="M 224.5 64 L 225.5 66 L 223 65.5 L 224.5 64 Z " /><path fill="rgb(0,0,0)" stroke="rgb(0,0,0)" stroke-width="1" opacity="0.5333333333333333" d="M 20.5 65 L 21 68.5 L 20 68.5 L 20.5 65 Z " /><path fill="rgb(0,0,0)" stroke="rgb(0,0,0)" stroke-width="1" opacity="0.5333333333333333" d="M 57.5 65 L 66 65.5 L 57.5 66 L 57.5 65 Z " /><path fill="rgb(0,0,0)" stroke="rgb(0,0,0)" stroke-width="1" opacity="0.5333333333333333" d="M 83.5 65 L 81.5 68 L 83.5 65 Z " /><path fill="rgb(0,0,0)" stroke="rgb(0,0,0)" stroke-width="1" opacity="0.5333333333333333" d="M 217.5 65 L 216.5 67 L 217.5 65 Z " /><path fill="rgb(0,0,0)" stroke="rgb(0,0,0)" stroke-width="1" opacity="0.5333333333333333" d="M 231.5 65 L 234.5 69 L 231.5 65 Z " /><path fill="rgb(0,0,0)" stroke="rgb(0,0,0)" stroke-width="1" opacity="0.5333333333333333" d="M 222.5 67 L 221.5 69 L 222.5 67 Z " /><path fill="rgb(0,0,0)" stroke="rgb(0,0,0)" stroke-width="1" opacity="0.5333333333333333" d="M 227.5 68 L 228.5 70 L 227.5 68 Z " /><path fill="rgb(0,0,0)" stroke="rgb(0,0,0)" stroke-width="1" opacity="0.5333333333333333" d="M 41.5 69 L 43 69.5 L 40.5 71 L 41.5 69 Z " /><path fill="rgb(0,0,0)" stroke="rgb(0,0,0)" stroke-width="1" opacity="0.5333333333333333" d="M 100.5 69 L 101 74.5 L 100 74.5 L 100.5 69 Z " /><path fill="rgb(0,0,0)" stroke="rgb(0,0,0)" stroke-width="1" opacity="0.5333333333333333" d="M 54.5 70 L 63 70.5 L 54.5 71 L 54.5 70 Z " /><path fill="rgb(0,0,0)" stroke="rgb(0,0,0)" stroke-width="1" opacity="0.5333333333333333" d="M 236.5 70 L 238.5 73 L 236.5 70 Z " /><path fill="rgb(0,0,0)" stroke="rgb(0,0,0)" stroke-width="1" opacity="0.5333333333333333" d="M 34.5 71 L 33.5 73 L 34.5 71 Z " /><path fill="rgb(0,0,0)" stroke="rgb(0,0,0)" stroke-width="1" opacity="0.5333333333333333" d="M 211.5 71 L 209.5 74 L 211.5 71 Z " /><path fill="rgb(0,0,0)" stroke="rgb(0,0,0)" stroke-width="1" opacity="0.5333333333333333" d="M 217.5 73 L 216.5 75 L 217.5 73 Z " /><path fill="rgb(0,0,0)" stroke="rgb(0,0,0)" stroke-width="1" opacity="0.5333333333333333" d="M 26.5 74 L 30 74.5 L 26.5 75 L 26.5 74 Z " /><path fill="rgb(0,0,0)" stroke="rgb(0,0,0)" stroke-width="1" opacity="0.5333333333333333" d="M 38.5 74 L 35.5 78 L 38.5 74 Z " /><path fill="rgb(0,0,0)" stroke="rgb(0,0,0)" stroke-width="1" opacity="0.5333333333333333" d="M 207.5 74 L 206.5 76 L 207.5 74 Z " /><path fill="rgb(0,0,0)" stroke="rgb(0,0,0)" stroke-width="1" opacity="0.5333333333333333" d="M 241.5 74 L 242.5 76 L 241.5 74 Z " /><path fill="rgb(0,0,0)" stroke="rgb(0,0,0)" stroke-width="1" opacity="0.5333333333333333" d="M 81.5 76 L 83.5 79 L 81.5 76 Z " /><path fill="rgb(0,0,0)" stroke="rgb(0,0,0)" stroke-width="1" opacity="0.5333333333333333" d="M 25.5 79 L 31 79.5 L 25.5 80 L 25.5 79 Z " /><path fill="rgb(0,0,0)" stroke="rgb(0,0,0)" stroke-width="1" opacity="0.5333333333333333" d="M 85.5 79 L 90 79.5 L 85.5 80 L 85.5 79 Z " /><path fill="rgb(0,0,0)" stroke="rgb(0,0,0)" stroke-width="1" opacity="0.5333333333333333" d="M 98.5 79 L 99.5 81 L 98.5 79 Z " /><path fill="rgb(0,0,0)" stroke="rgb(0,0,0)" stroke-width="1" opacity="0.5333333333333333" d="M 206.5 79 L 207.5 81 L 206.5 79 Z " /><path fill="rgb(0,0,0)" stroke="rgb(0,0,0)" stroke-width="1" opacity="0.5333333333333333" d="M 210.5 82 L 212.5 85 L 210.5 82 Z " /><path fill="rgb(0,0,0)" stroke="rgb(0,0,0)" stroke-width="1" opacity="0.5333333333333333" d="M 238.5 82 L 232.5 89 L 238.5 82 Z " /><path fill="rgb(0,0,0)" stroke="rgb(0,0,0)" stroke-width="1" opacity="0.5333333333333333" d="M 101.5 83 L 102.5 85 L 101.5 83 Z " /><path fill="rgb(0,0,0)" stroke="rgb(0,0,0)" stroke-width="1" opacity="0.5333333333333333" d="M 96.5 85 L 97.5 87 L 96.5 85 Z " /><path fill="rgb(0,0,0)" stroke="rgb(0,0,0)" stroke-width="1" opacity="0.5333333333333333" d="M 220.5 85 L 222.5 88 L 220.5 85 Z " /><path fill="rgb(0,0,0)" stroke="rgb(0,0,0)" stroke-width="1" opacity="0.5333333333333333" d="M 228.5 85 L 227.5 87 L 228.5 85 Z " /><path fill="rgb(0,0,0)" stroke="rgb(0,0,0)" stroke-width="1" opacity="0.5333333333333333" d="M 104.5 87 L 105.5 89 L 104.5 87 Z " /><path fill="rgb(0,0,0)" stroke="rgb(0,0,0)" stroke-width="1" opacity="0.5333333333333333" d="M 215.5 87 L 217.5 90 L 215.5 87 Z " /><path fill="rgb(0,0,0)" stroke="rgb(0,0,0)" stroke-width="1" opacity="0.5333333333333333" d="M 99.5 89 L 100.5 91 L 99.5 89 Z " /><path fill="rgb(0,0,0)" stroke="rgb(0,0,0)" stroke-width="1" opacity="0.5333333333333333" d="M 223.5 89 L 226 89.5 Q 223.9 92.8 223.5 89 Z " /><path fill="rgb(0,0,0)" stroke="rgb(0,0,0)" stroke-width="1" opacity="0.5333333333333333" d="M 107.5 91 L 108.5 93 L 107.5 91 Z " /><path fill="rgb(0,0,0)" stroke="rgb(0,0,0)" stroke-width="1" opacity="0.5333333333333333" d="M 230.5 91 L 229.5 93 L 230.5 91 Z " /><path fill="rgb(0,0,0)" stroke="rgb(0,0,0)" stroke-width="1" opacity="0.5333333333333333" d="M 103.5 94 L 104.5 96 L 103.5 94 Z " /><path fill="rgb(0,0,0)" stroke="rgb(0,0,0)" stroke-width="1" opacity="0.5333333333333333" d="M 220.5 94 L 221.5 96 L 220.5 94 Z " /><path fill="rgb(0,0,0)" stroke="rgb(0,0,0)" stroke-width="1" opacity="0.5333333333333333" d="M 126.5 97 L 128.5 100 L 126.5 97 Z " /><path fill="rgb(0,0,0)" stroke="rgb(0,0,0)" stroke-width="1" opacity="0.5333333333333333" d="M 106.5 98 L 107.5 100 L 106.5 98 Z " /><path fill="rgb(0,0,0)" stroke="rgb(0,0,0)" stroke-width="1" opacity="0.5333333333333333" d="M 116.5 100 L 121 100.5 L 116.5 101 L 116.5 100 Z " /><path fill="rgb(0,0,0)" stroke="rgb(0,0,0)" stroke-width="1" opacity="0.5333333333333333" d="M 114.5 101 L 112.5 104 L 114.5 101 Z " /><path fill="rgb(0,0,0)" stroke="rgb(0,0,0)" stroke-width="1" opacity="0.5333333333333333" d="M 131.5 105 L 132 110.5 L 131 110.5 L 131.5 105 Z " /><path fill="rgb(0,0,0)" stroke="rgb(0,0,0)" stroke-width="1" opacity="0.5333333333333333" d="M 112.5 112 L 114.5 115 L 112.5 112 Z " /><path fill="rgb(0,0,0)" stroke="rgb(0,0,0)" stroke-width="1" opacity="0.5333333333333333" d="M 116.5 115 L 121 115.5 L 116.5 116 L 116.5 115 Z " /><path fill="rgb(0,0,0)" stroke="rgb(0,0,0)" stroke-width="1" opacity="0.5333333333333333" d="M 128.5 116 L 128.5 119 Q 125.5 117.5 128.5 116 Z " /><path fill="rgb(0,0,0)" stroke="rgb(0,0,0)" stroke-width="1" opacity="0.5333333333333333" d="M 130.5 121 L 131.5 123 L 130.5 121 Z " /><path fill="rgb(0,0,0)" stroke="rgb(0,0,0)" stroke-width="1" opacity="0.5333333333333333" d="M 125.5 123 L 126.5 125 L 125.5 123 Z " /><path fill="rgb(0,0,0)" stroke="rgb(0,0,0)" stroke-width="1" opacity="0.5333333333333333" d="M 133.5 125 L 134.5 127 L 133.5 125 Z " /><path fill="rgb(0,0,0)" stroke="rgb(0,0,0)" stroke-width="1" opacity="0.5333333333333333" d="M 128.5 127 L 129.5 129 L 128.5 127 Z " /><path fill="rgb(0,0,0)" stroke="rgb(0,0,0)" stroke-width="1" opacity="0.5333333333333333" d="M 136.5 129 L 137.5 131 L 136.5 129 Z " /><path fill="rgb(0,0,0)" stroke="rgb(0,0,0)" stroke-width="1" opacity="0.5333333333333333" d="M 131.5 131 L 132.5 133 L 131.5 131 Z " /><path fill="rgb(0,0,0)" stroke="rgb(0,0,0)" stroke-width="1" opacity="0.5333333333333333" d="M 139.5 133 L 140.5 135 L 139.5 133 Z " /><path fill="rgb(0,0,0)" stroke="rgb(0,0,0)" stroke-width="1" opacity="0.5333333333333333" d="M 134.5 135 L 135.5 137 L 134.5 135 Z " /><path fill="rgb(0,0,0)" stroke="rgb(0,0,0)" stroke-width="1" opacity="0.5333333333333333" d="M 142.5 137 L 143.5 139 L 142.5 137 Z " /><path fill="rgb(0,0,0)" stroke="rgb(0,0,0)" stroke-width="1" opacity="0.5333333333333333" d="M 138.5 140 L 139.5 142 L 138.5 140 Z " /><path fill="rgb(0,0,0)" stroke="rgb(0,0,0)" stroke-width="1" opacity="0.5333333333333333" d="M 150.5 141 L 155 141.5 L 150.5 142 L 150.5 141 Z " /><path fill="rgb(0,0,0)" stroke="rgb(0,0,0)" stroke-width="1" opacity="0.5333333333333333" d="M 159.5 143 L 162.5 147 L 159.5 143 Z " /><path fill="rgb(0,0,0)" stroke="rgb(0,0,0)" stroke-width="1" opacity="0.5333333333333333" d="M 141.5 144 L 142.5 146 L 141.5 144 Z " /><path fill="rgb(0,0,0)" stroke="rgb(0,0,0)" stroke-width="1" opacity="0.5333333333333333" d="M 151.5 146 L 154 146.5 L 151.5 147 L 151.5 146 Z " /><path fill="rgb(0,0,0)" stroke="rgb(0,0,0)" stroke-width="1" opacity="0.5333333333333333" d="M 157.5 148 L 158.5 150 L 157.5 148 Z " /><path fill="rgb(0,0,0)" stroke="rgb(0,0,0)" stroke-width="1" opacity="0.5333333333333333" d="M 236.5 149 L 239 149.5 L 236.5 150 L 236.5 149 Z " /><path fill="rgb(0,0,0)" stroke="rgb(0,0,0)" stroke-width="1" opacity="0.5333333333333333" d="M 139.5 151 L 140 156.5 L 139 156.5 L 139.5 151 Z " /><path fill="rgb(0,0,0)" stroke="rgb(0,0,0)" stroke-width="1" opacity="0.5333333333333333" d="M 232.5 151 L 229.5 155 L 232.5 151 Z " /><path fill="rgb(0,0,0)" stroke="rgb(0,0,0)" stroke-width="1" opacity="0.5333333333333333" d="M 247.5 151 L 250.5 155 L 247.5 151 Z " /><path fill="rgb(0,0,0)" stroke="rgb(0,0,0)" stroke-width="1" opacity="0.5333333333333333" d="M 144.5 153 L 145 155.5 L 144 155.5 L 144.5 153 Z " /><path fill="rgb(0,0,0)" stroke="rgb(0,0,0)" stroke-width="1" opacity="0.5333333333333333" d="M 170.5 153 L 175 153.5 L 170.5 154 L 170.5 153 Z " /><path fill="rgb(0,0,0)" stroke="rgb(0,0,0)" stroke-width="1" opacity="0.5333333333333333" d="M 181.5 154 L 186 154.5 L 181.5 155 L 181.5 154 Z " /><path fill="rgb(0,0,0)" stroke="rgb(0,0,0)" stroke-width="1" opacity="0.5333333333333333" d="M 238.5 154 L 243 154.5 L 238.5 155 L 238.5 154 Z " /><path fill="rgb(0,0,0)" stroke="rgb(0,0,0)" stroke-width="1" opacity="0.5333333333333333" d="M 193.5 155 L 198 155.5 L 193.5 156 L 193.5 155 Z " /><path fill="rgb(0,0,0)" stroke="rgb(0,0,0)" stroke-width="1" opacity="0.5333333333333333" d="M 244.5 155 L 246.5 158 L 244.5 155 Z " /><path fill="rgb(0,0,0)" stroke="rgb(0,0,0)" stroke-width="1" opacity="0.5333333333333333" d="M 159.5 156 L 160 157.5 L 158 158.5 L 159.5 156 Z " /><path fill="rgb(0,0,0)" stroke="rgb(0,0,0)" stroke-width="1" opacity="0.5333333333333333" d="M 204.5 156 L 209 156.5 L 204.5 157 L 204.5 156 Z " /><path fill="rgb(0,0,0)" stroke="rgb(0,0,0)" stroke-width="1" opacity="0.5333333333333333" d="M 216.5 157 L 221 157.5 L 216.5 158 L 216.5 157 Z " /><path fill="rgb(0,0,0)" stroke="rgb(0,0,0)" stroke-width="1" opacity="0.5333333333333333" d="M 168.5 158 L 173 158.5 L 168.5 159 L 168.5 158 Z " /><path fill="rgb(0,0,0)" stroke="rgb(0,0,0)" stroke-width="1" opacity="0.5333333333333333" d="M 146.5 159 L 147.5 161 L 146.5 159 Z " /><path fill="rgb(0,0,0)" stroke="rgb(0,0,0)" stroke-width="1" opacity="0.5333333333333333" d="M 179.5 159 L 184 159.5 L 183.5 162 L 179.5 160 L 179.5 159 Z " /><path fill="rgb(0,0,0)" stroke="rgb(0,0,0)" stroke-width="1" opacity="0.5333333333333333" d="M 156.5 160 L 155.5 162 L 154 161.5 L 156.5 160 Z " /><path fill="rgb(0,0,0)" stroke="rgb(0,0,0)" stroke-width="1" opacity="0.5333333333333333" d="M 186.5 160 L 196 160.5 L 186.5 161 L 186.5 160 Z " /><path fill="rgb(0,0,0)" stroke="rgb(0,0,0)" stroke-width="1" opacity="0.5333333333333333" d="M 232.5 160 L 233 163.5 L 232 163.5 L 232.5 160 Z " /><path fill="rgb(0,0,0)" stroke="rgb(0,0,0)" stroke-width="1" opacity="0.5333333333333333" d="M 141.5 161 L 142.5 163 L 141.5 161 Z " /><path fill="rgb(0,0,0)" stroke="rgb(0,0,0)" stroke-width="1" opacity="0.5333333333333333" d="M 180.5 161 L 181.5 163 L 180.5 161 Z " /><path fill="rgb(0,0,0)" stroke="rgb(0,0,0)" stroke-width="1" opacity="0.5333333333333333" d="M 202.5 161 L 207 161.5 L 202.5 162 L 202.5 161 Z " /><path fill="rgb(0,0,0)" stroke="rgb(0,0,0)" stroke-width="1" opacity="0.5333333333333333" d="M 178.5 162 L 179.5 164 L 177 163.5 L 178.5 162 Z " /><path fill="rgb(0,0,0)" stroke="rgb(0,0,0)" stroke-width="1" opacity="0.5333333333333333" d="M 214.5 162 L 219 162.5 L 214.5 163 L 214.5 162 Z " /><path fill="rgb(0,0,0)" stroke="rgb(0,0,0)" stroke-width="1" opacity="0.5333333333333333" d="M 187.5 163 L 194.5 164 L 196.5 163 L 195.5 165 Q 187.4 166.7 187.5 163 Z " /><path fill="rgb(0,0,0)" stroke="rgb(0,0,0)" stroke-width="1" opacity="0.5333333333333333" d="M 225.5 163 L 228 164.5 L 227.5 166 L 227 164 L 225.5 163 Z " /><path fill="rgb(0,0,0)" stroke="rgb(0,0,0)" stroke-width="1" opacity="0.5333333333333333" d="M 184.5 164 L 185.5 166 Q 182.7 166.7 184.5 164 Z " /><path fill="rgb(0,0,0)" stroke="rgb(0,0,0)" stroke-width="1" opacity="0.5333333333333333" d="M 199.5 164 L 198.5 166 L 199.5 164 Z " /><path fill="rgb(0,0,0)" stroke="rgb(0,0,0)" stroke-width="1" opacity="0.5333333333333333" d="M 181.5 165 L 182.5 167 L 181 166.5 L 179.5 169 L 178.5 168 L 175 171.5 Q 177.3 172.8 174.5 174 L 173 174.5 L 173.5 176 Q 170.5 174.5 173.5 173 L 175 172.5 L 174 171.5 L 178.5 167 L 180 167.5 L 181.5 165 Z " /><path fill="rgb(0,0,0)" stroke="rgb(0,0,0)" stroke-width="1" opacity="0.5333333333333333" d="M 246.5 166 L 244.5 169 L 246.5 166 Z " /><path fill="rgb(0,0,0)" stroke="rgb(0,0,0)" stroke-width="1" opacity="0.5333333333333333" d="M 188.5 167 L 196 167.5 Q 194.3 169.8 189.5 169 L 188.5 167 Z " /><path fill="rgb(0,0,0)" stroke="rgb(0,0,0)" stroke-width="1" opacity="0.5333333333333333" d="M 185.5 168 L 186.5 170 L 185.5 168 Z " /><path fill="rgb(0,0,0)" stroke="rgb(0,0,0)" stroke-width="1" opacity="0.5333333333333333" d="M 198.5 168 L 197.5 170 L 198.5 168 Z " /><path fill="rgb(0,0,0)" stroke="rgb(0,0,0)" stroke-width="1" opacity="0.5333333333333333" d="M 59.5 169 L 60.5 171 L 59.5 169 Z " /><path fill="rgb(0,0,0)" stroke="rgb(0,0,0)" stroke-width="1" opacity="0.5333333333333333" d="M 183.5 169 L 184.5 171 L 183.5 169 Z " /><path fill="rgb(0,0,0)" stroke="rgb(0,0,0)" stroke-width="1" opacity="0.5333333333333333" d="M 200.5 169 L 199.5 171 L 200.5 169 Z " /><path fill="rgb(0,0,0)" stroke="rgb(0,0,0)" stroke-width="1" opacity="0.5333333333333333" d="M 229.5 169 L 230.5 171 L 229.5 169 Z " /><path fill="rgb(0,0,0)" stroke="rgb(0,0,0)" stroke-width="1" opacity="0.5333333333333333" d="M 238.5 169 L 243 169.5 L 238.5 170 L 238.5 169 Z " /><path fill="rgb(0,0,0)" stroke="rgb(0,0,0)" stroke-width="1" opacity="0.5333333333333333" d="M 250.5 169 L 247.5 173 L 250.5 169 Z " /><path fill="rgb(0,0,0)" stroke="rgb(0,0,0)" stroke-width="1" opacity="0.5333333333333333" d="M 52.5 170 L 51.5 172 L 52.5 170 Z " /><path fill="rgb(0,0,0)" stroke="rgb(0,0,0)" stroke-width="1" opacity="0.5333333333333333" d="M 155.5 170 L 156 176.5 L 155 176.5 L 155.5 170 Z " /><path fill="rgb(0,0,0)" stroke="rgb(0,0,0)" stroke-width="1" opacity="0.5333333333333333" d="M 181.5 170 L 182.5 172 L 180 171.5 L 181.5 170 Z " /><path fill="rgb(0,0,0)" stroke="rgb(0,0,0)" stroke-width="1" opacity="0.5333333333333333" d="M 190.5 171 L 195 171.5 L 190.5 172 L 190.5 171 Z " /><path fill="rgb(0,0,0)" stroke="rgb(0,0,0)" stroke-width="1" opacity="0.5333333333333333" d="M 201.5 171 L 203.5 171 L 206 173.5 L 205.5 175 L 207 175.5 L 205.5 176 L 201.5 171 Z " /><path fill="rgb(0,0,0)" stroke="rgb(0,0,0)" stroke-width="1" opacity="0.5333333333333333" d="M 187.5 172 L 188.5 174 Q 185.7 174.7 187.5 172 Z " /><path fill="rgb(0,0,0)" stroke="rgb(0,0,0)" stroke-width="1" opacity="0.5333333333333333" d="M 197.5 172 L 196.5 174 L 197.5 172 Z " /><path fill="rgb(0,0,0)" stroke="rgb(0,0,0)" stroke-width="1" opacity="0.5333333333333333" d="M 62.5 173 L 64.5 176 L 62.5 173 Z " /><path fill="rgb(0,0,0)" stroke="rgb(0,0,0)" stroke-width="1" opacity="0.5333333333333333" d="M 150.5 173 L 151 178.5 L 150 178.5 L 150.5 173 Z " /><path fill="rgb(0,0,0)" stroke="rgb(0,0,0)" stroke-width="1" opacity="0.5333333333333333" d="M 199.5 173 L 198.5 175 L 199.5 173 Z " /><path fill="rgb(0,0,0)" stroke="rgb(0,0,0)" stroke-width="1" opacity="0.5333333333333333" d="M 177.5 174 L 178.5 176 L 177.5 174 Z " /><path fill="rgb(0,0,0)" stroke="rgb(0,0,0)" stroke-width="1" opacity="0.5333333333333333" d="M 183.5 174 L 186 174.5 L 181 176.5 L 183.5 174 Z " /><path fill="rgb(0,0,0)" stroke="rgb(0,0,0)" stroke-width="1" opacity="0.5333333333333333" d="M 235.5 174 L 238 174.5 L 235.5 175 L 235.5 174 Z " /><path fill="rgb(0,0,0)" stroke="rgb(0,0,0)" stroke-width="1" opacity="0.5333333333333333" d="M 57.5 175 L 62 180.5 L 57 184.5 L 61 179.5 L 57.5 175 Z " /><path fill="rgb(0,0,0)" stroke="rgb(0,0,0)" stroke-width="1" opacity="0.5333333333333333" d="M 46.5 176 L 45.5 178 L 46.5 176 Z " /><path fill="rgb(0,0,0)" stroke="rgb(0,0,0)" stroke-width="1" opacity="0.5333333333333333" d="M 176.5 176 L 177.5 178 L 176.5 176 Z " /><path fill="rgb(0,0,0)" stroke="rgb(0,0,0)" stroke-width="1" opacity="0.5333333333333333" d="M 188.5 176 L 189.5 178 L 188.5 176 Z " /><path fill="rgb(0,0,0)" stroke="rgb(0,0,0)" stroke-width="1" opacity="0.5333333333333333" d="M 195.5 176 L 194.5 178 L 195.5 176 Z " /><path fill="rgb(0,0,0)" stroke="rgb(0,0,0)" stroke-width="1" opacity="0.5333333333333333" d="M 53.5 177 L 51.5 180 L 53.5 177 Z " /><path fill="rgb(0,0,0)" stroke="rgb(0,0,0)" stroke-width="1" opacity="0.5333333333333333" d="M 67.5 177 L 68.5 179 L 67.5 177 Z " /><path fill="rgb(0,0,0)" stroke="rgb(0,0,0)" stroke-width="1" opacity="0.5333333333333333" d="M 186.5 177 L 187.5 179 Q 186.3 176.8 185 179.5 L 185.5 181 Q 182 179 186.5 177 Z " /><path fill="rgb(0,0,0)" stroke="rgb(0,0,0)" stroke-width="1" opacity="0.5333333333333333" d="M 175.5 178 L 176.5 180 L 175.5 178 Z " /><path fill="rgb(0,0,0)" stroke="rgb(0,0,0)" stroke-width="1" opacity="0.5333333333333333" d="M 196.5 178 L 199 178.5 L 198.5 181 L 196.5 178 Z " /><path fill="rgb(0,0,0)" stroke="rgb(0,0,0)" stroke-width="1" opacity="0.5333333333333333" d="M 179.5 179 L 180.5 181 Q 177.7 181.7 179.5 179 Z " /><path fill="rgb(0,0,0)" stroke="rgb(0,0,0)" stroke-width="1" opacity="0.5333333333333333" d="M 189.5 180 L 190.5 182 Q 189.3 179.8 188 182.5 L 188.5 184 Q 185 182 189.5 180 Z " /><path fill="rgb(0,0,0)" stroke="rgb(0,0,0)" stroke-width="1" opacity="0.5333333333333333" d="M 193.5 180 L 194.5 182 L 196 181.5 Q 194.8 184.3 193.5 182 L 192 181.5 L 193.5 180 Z " /><path fill="rgb(0,0,0)" stroke="rgb(0,0,0)" stroke-width="1" opacity="0.5333333333333333" d="M 68.5 181 L 67.5 183 L 68.5 181 Z " /><path fill="rgb(0,0,0)" stroke="rgb(0,0,0)" stroke-width="1" opacity="0.5333333333333333" d="M 174.5 181 Q 177.5 182.5 176 188.5 L 174.5 191 L 174.5 181 Z " /><path fill="rgb(0,0,0)" stroke="rgb(0,0,0)" stroke-width="1" opacity="0.5333333333333333" d="M 183.5 181 L 184.5 183 L 183.5 181 Z " /><path fill="rgb(0,0,0)" stroke="rgb(0,0,0)" stroke-width="1" opacity="0.5333333333333333" d="M 205.5 181 L 206 183.5 L 204.5 186 L 204 182.5 L 205.5 181 Z " /><path fill="rgb(0,0,0)" stroke="rgb(0,0,0)" stroke-width="1" opacity="0.5333333333333333" d="M 45.5 182 L 46.5 184 L 45.5 182 Z " /><path fill="rgb(0,0,0)" stroke="rgb(0,0,0)" stroke-width="1" opacity="0.5333333333333333" d="M 199 182 L 201 182.5 L 200 184.5 L 200.5 186 L 199 182 Z " /><path fill="rgb(0,0,0)" stroke="rgb(0,0,0)" stroke-width="1" opacity="0.5333333333333333" d="M 178.5 183 L 179 188.5 L 178 188.5 L 178.5 183 Z " /><path fill="rgb(0,0,0)" stroke="rgb(0,0,0)" stroke-width="1" opacity="0.5333333333333333" d="M 196.5 183 L 197 185.5 L 195.5 188 L 195 184.5 L 196.5 183 Z " /><path fill="rgb(0,0,0)" stroke="rgb(0,0,0)" stroke-width="1" opacity="0.5333333333333333" d="M 64.5 184 L 62.5 187 L 64.5 184 Z " /><path fill="rgb(0,0,0)" stroke="rgb(0,0,0)" stroke-width="1" opacity="0.5333333333333333" d="M 156.5 184 L 157 187.5 L 156 187.5 L 156.5 184 Z " /><path fill="rgb(0,0,0)" stroke="rgb(0,0,0)" stroke-width="1" opacity="0.5333333333333333" d="M 191.5 184 L 193 187.5 L 191 188.5 L 192 185.5 L 191.5 184 Z " /><path fill="rgb(0,0,0)" stroke="rgb(0,0,0)" stroke-width="1" opacity="0.5333333333333333" d="M 188.5 186 L 189 189.5 L 187 190.5 L 188.5 186 Z " /><path fill="rgb(0,0,0)" stroke="rgb(0,0,0)" stroke-width="1" opacity="0.5333333333333333" d="M 222.5 186 L 221.5 188 L 222.5 186 Z " /><path fill="rgb(0,0,0)" stroke="rgb(0,0,0)" stroke-width="1" opacity="0.5333333333333333" d="M 50.5 187 L 51.5 189 L 50.5 187 Z " /><path fill="rgb(0,0,0)" stroke="rgb(0,0,0)" stroke-width="1" opacity="0.5333333333333333" d="M 151.5 187 L 150.5 189 L 151.5 187 Z " /><path fill="rgb(0,0,0)" stroke="rgb(0,0,0)" stroke-width="1" opacity="0.5333333333333333" d="M 205.5 187 L 206.5 189 L 205.5 187 Z " /><path fill="rgb(0,0,0)" stroke="rgb(0,0,0)" stroke-width="1" opacity="0.5333333333333333" d="M 60.5 189 L 59.5 191 L 60.5 189 Z " /><path fill="rgb(0,0,0)" stroke="rgb(0,0,0)" stroke-width="1" opacity="0.5333333333333333" d="M 161.5 189 L 162.5 191 L 161.5 189 Z " /><path fill="rgb(0,0,0)" stroke="rgb(0,0,0)" stroke-width="1" opacity="0.5333333333333333" d="M 197.5 189 L 196.5 191 L 197.5 189 Z " /><path fill="rgb(0,0,0)" stroke="rgb(0,0,0)" stroke-width="1" opacity="0.5333333333333333" d="M 184.5 190 L 185 191.5 L 183 192.5 L 184.5 190 Z " /><path fill="rgb(0,0,0)" stroke="rgb(0,0,0)" stroke-width="1" opacity="0.5333333333333333" d="M 193.5 190 L 192.5 192 L 193.5 190 Z " /><path fill="rgb(0,0,0)" stroke="rgb(0,0,0)" stroke-width="1" opacity="0.5333333333333333" d="M 180.5 191 L 181 195.5 L 179 194.5 L 180.5 191 Z " /><path fill="rgb(0,0,0)" stroke="rgb(0,0,0)" stroke-width="1" opacity="0.5333333333333333" d="M 189.5 191 L 190 192.5 L 188 193.5 L 189.5 191 Z " /><path fill="rgb(0,0,0)" stroke="rgb(0,0,0)" stroke-width="1" opacity="0.5333333333333333" d="M 198.5 191 L 198.5 194 Q 195.5 192.5 198.5 191 Z " /><path fill="rgb(0,0,0)" stroke="rgb(0,0,0)" stroke-width="1" opacity="0.5333333333333333" d="M 203.5 191 L 206 195 L 203 193.5 L 203.5 191 Z " /><path fill="rgb(0,0,0)" stroke="rgb(0,0,0)" stroke-width="1" opacity="0.5333333333333333" d="M 219.5 191 L 218.5 193 L 219.5 191 Z " /><path fill="rgb(0,0,0)" stroke="rgb(0,0,0)" stroke-width="1" opacity="0.5333333333333333" d="M 174.5 193 L 175.5 195 L 174.5 193 Z " /><path fill="rgb(0,0,0)" stroke="rgb(0,0,0)" stroke-width="1" opacity="0.5333333333333333" d="M 159.5 194 L 161.5 197 L 159.5 194 Z " /><path fill="rgb(0,0,0)" stroke="rgb(0,0,0)" stroke-width="1" opacity="0.5333333333333333" d="M 185.5 194 L 186 198.5 L 184 197.5 L 185.5 194 Z " /><path fill="rgb(0,0,0)" stroke="rgb(0,0,0)" stroke-width="1" opacity="0.5333333333333333" d="M 190.5 194 L 189.5 196 L 190.5 194 Z " /><path fill="rgb(0,0,0)" stroke="rgb(0,0,0)" stroke-width="1" opacity="0.5333333333333333" d="M 195.5 194 L 195.5 197 Q 192.5 195.5 195.5 194 Z " /><path fill="rgb(0,0,0)" stroke="rgb(0,0,0)" stroke-width="1" opacity="0.5333333333333333" d="M 200.5 194 L 204 199 L 201 197.5 L 202 196.5 L 200.5 194 Z " /><path fill="rgb(0,0,0)" stroke="rgb(0,0,0)" stroke-width="1" opacity="0.5333333333333333" d="M 191.5 196 Q 194.5 197.5 191.5 199 L 191.5 196 Z " /><path fill="rgb(0,0,0)" stroke="rgb(0,0,0)" stroke-width="1" opacity="0.5333333333333333" d="M 216.5 196 L 215.5 198 L 216.5 196 Z " /><path fill="rgb(0,0,0)" stroke="rgb(0,0,0)" stroke-width="1" opacity="0.5333333333333333" d="M 222.5 196 L 221.5 198 L 222.5 196 Z " /><path fill="rgb(0,0,0)" stroke="rgb(0,0,0)" stroke-width="1" opacity="0.5333333333333333" d="M 167.5 197 L 168 199.5 L 167 199.5 L 167.5 197 Z " /><path fill="rgb(0,0,0)" stroke="rgb(0,0,0)" stroke-width="1" opacity="0.5333333333333333" d="M 178.5 197 L 180 198.5 L 176.5 202 L 179 198.5 L 178.5 197 Z " /><path fill="rgb(0,0,0)" stroke="rgb(0,0,0)" stroke-width="1" opacity="0.5333333333333333" d="M 197.5 197 L 201 200.5 L 199.5 202 L 197 199.5 L 197.5 197 Z " /><path fill="rgb(0,0,0)" stroke="rgb(0,0,0)" stroke-width="1" opacity="0.5333333333333333" d="M 162.5 199 L 163 202.5 L 162 202.5 L 162.5 199 Z " /><path fill="rgb(0,0,0)" stroke="rgb(0,0,0)" stroke-width="1" opacity="0.5333333333333333" d="M 220.5 199 L 221.5 201 L 220.5 199 Z " /><path fill="rgb(0,0,0)" stroke="rgb(0,0,0)" stroke-width="1" opacity="0.5333333333333333" d="M 194.5 200 L 198 203.5 L 196.5 205 L 194 202.5 L 194.5 200 Z " /><path fill="rgb(0,0,0)" stroke="rgb(0,0,0)" stroke-width="1" opacity="0.5333333333333333" d="M 206.5 200 L 204.5 203 L 206.5 200 Z " /><path fill="rgb(0,0,0)" stroke="rgb(0,0,0)" stroke-width="1" opacity="0.5333333333333333" d="M 181.5 203 L 182.5 205 L 181.5 203 Z " /><path fill="rgb(0,0,0)" stroke="rgb(0,0,0)" stroke-width="1" opacity="0.5333333333333333" d="M 191.5 203 Q 194.2 204.3 192 205.5 Q 192.8 207.8 190.5 207 L 190 204.5 L 191.5 203 Z " /><path fill="rgb(0,0,0)" stroke="rgb(0,0,0)" stroke-width="1" opacity="0.5333333333333333" d="M 218.5 204 L 220.5 207 L 218.5 204 Z " /><path fill="rgb(0,0,0)" stroke="rgb(0,0,0)" stroke-width="1" opacity="0.5333333333333333" d="M 159.5 206 L 158.5 208 L 159.5 206 Z " /><path fill="rgb(0,0,0)" stroke="rgb(0,0,0)" stroke-width="1" opacity="0.5333333333333333" d="M 166.5 206 L 165.5 208 L 166.5 206 Z " /><path fill="rgb(0,0,0)" stroke="rgb(0,0,0)" stroke-width="1" opacity="0.5333333333333333" d="M 193.5 206 L 196 207.5 L 194.5 208 L 193.5 206 Z " /><path fill="rgb(0,0,0)" stroke="rgb(0,0,0)" stroke-width="1" opacity="0.5333333333333333" d="M 144.5 208 L 146.5 211 L 144.5 208 Z " /><path fill="rgb(0,0,0)" stroke="rgb(0,0,0)" stroke-width="1" opacity="0.5333333333333333" d="M 206.5 209 L 207 212.5 L 206 212.5 L 206.5 209 Z " /><path fill="rgb(0,0,0)" stroke="rgb(0,0,0)" stroke-width="1" opacity="0.5333333333333333" d="M 153.5 213 L 157 213.5 L 153.5 214 L 153.5 213 Z " /><path fill="rgb(0,0,0)" stroke="rgb(0,0,0)" stroke-width="1" opacity="0.5333333333333333" d="M 220.5 215 L 218.5 218 L 220.5 215 Z " /><path fill="rgb(0,0,0)" stroke="rgb(0,0,0)" stroke-width="1" opacity="0.5333333333333333" d="M 225.5 217 L 224.5 219 L 225.5 217 Z " /><path fill="rgb(0,0,0)" stroke="rgb(0,0,0)" stroke-width="1" opacity="0.5333333333333333" d="M 212.5 218 L 216 218.5 L 212.5 219 L 212.5 218 Z " /><path fill="rgb(0,0,0)" stroke="rgb(0,0,0)" stroke-width="1" opacity="0.5333333333333333" d="M 204.5 219 L 205.5 221 L 204.5 219 Z " /><path fill="rgb(0,0,0)" stroke="rgb(0,0,0)" stroke-width="1" opacity="0.5333333333333333" d="M 215.5 223 L 218 223.5 L 215.5 224 L 215.5 223 Z " /><path fill="rgb(0,0,0)" stroke="rgb(0,0,0)" stroke-width="1" opacity="0.5333333333333333" d="M 57.5 248 L 60 248.5 Q 57.9 251.8 57.5 248 Z " /><path fill="rgb(0,0,0)" stroke="rgb(0,0,0)" stroke-width="1" opacity="0.5333333333333333" d="M 49.5 249 L 53 249.5 L 49.5 250 L 49.5 249 Z " /><path fill="rgb(0,0,0)" stroke="rgb(0,0,0)" stroke-width="1" opacity="0.5333333333333333" d="M 61.5 249 L 66 249.5 L 62.5 251 L 61.5 249 Z " /><path fill="rgb(0,0,0)" stroke="rgb(0,0,0)" stroke-width="1" opacity="0.5333333333333333" d="M 110.5 249 L 113 249.5 L 110.5 250 L 110.5 249 Z " /><path fill="rgb(0,0,0)" stroke="rgb(0,0,0)" stroke-width="1" opacity="0.5333333333333333" d="M 129.5 249 L 134 249.5 L 131 250.5 L 131.5 252 L 129.5 249 Z " /><path fill="rgb(0,0,0)" stroke="rgb(0,0,0)" stroke-width="1" opacity="0.5333333333333333" d="M 174.5 249 L 178 250.5 L 176.5 250 Q 173.5 250.5 174.5 249 Z " /><path fill="rgb(0,0,0)" stroke="rgb(0,0,0)" stroke-width="1" opacity="0.5333333333333333" d="M 218.5 249 L 221 249.5 L 218.5 250 L 218.5 249 Z " /><path fill="rgb(0,0,0)" stroke="rgb(0,0,0)" stroke-width="1" opacity="0.5333333333333333" d="M 41.5 250 L 45 250.5 L 41.5 251 L 41.5 250 Z " /><path fill="rgb(0,0,0)" stroke="rgb(0,0,0)" stroke-width="1" opacity="0.5333333333333333" d="M 73.5 250 L 78 250.5 L 73.5 251 L 73.5 250 Z " /><path fill="rgb(0,0,0)" stroke="rgb(0,0,0)" stroke-width="1" opacity="0.5333333333333333" d="M 100.5 250 L 104 250.5 L 100.5 251 L 100.5 250 Z " /><path fill="rgb(0,0,0)" stroke="rgb(0,0,0)" stroke-width="1" opacity="0.5333333333333333" d="M 141.5 250 L 146 250.5 L 141.5 251 L 141.5 250 Z " /><path fill="rgb(0,0,0)" stroke="rgb(0,0,0)" stroke-width="1" opacity="0.5333333333333333" d="M 167.5 250 L 170 250.5 L 167.5 251 L 167.5 250 Z " /><path fill="rgb(0,0,0)" stroke="rgb(0,0,0)" stroke-width="1" opacity="0.5333333333333333" d="M 183.5 250 L 188 250.5 L 183.5 251 L 183.5 250 Z " /><path fill="rgb(0,0,0)" stroke="rgb(0,0,0)" stroke-width="1" opacity="0.5333333333333333" d="M 34.5 251 L 37 251.5 L 34.5 252 L 34.5 251 Z " /><path fill="rgb(0,0,0)" stroke="rgb(0,0,0)" stroke-width="1" opacity="0.5333333333333333" d="M 85.5 251 Q 90 250 91 252.5 L 88.5 253 Q 84.7 252.8 85.5 251 Z " /><path fill="rgb(0,0,0)" stroke="rgb(0,0,0)" stroke-width="1" opacity="0.5333333333333333" d="M 92.5 251 L 95 251.5 L 92.5 252 L 92.5 251 Z " /><path fill="rgb(0,0,0)" stroke="rgb(0,0,0)" stroke-width="1" opacity="0.5333333333333333" d="M 119.5 251 L 120.5 253 L 119.5 251 Z " /><path fill="rgb(0,0,0)" stroke="rgb(0,0,0)" stroke-width="1" opacity="0.5333333333333333" d="M 153.5 251 L 157 251.5 Q 155.8 254.3 154.5 252 L 153.5 251 Z " /><path fill="rgb(0,0,0)" stroke="rgb(0,0,0)" stroke-width="1" opacity="0.5333333333333333" d="M 160.5 251 L 163 251.5 L 160.5 252 L 160.5 251 Z " /><path fill="rgb(0,0,0)" stroke="rgb(0,0,0)" stroke-width="1" opacity="0.5333333333333333" d="M 194.5 251 Q 199 250 200 252.5 L 198.5 252 Q 193.5 253 194.5 251 Z " /><path fill="rgb(0,0,0)" stroke="rgb(0,0,0)" stroke-width="1" opacity="0.5333333333333333" d="M 236.5 251 L 237 253.5 L 236 253.5 L 236.5 251 Z " /><path fill="rgb(0,0,0)" stroke="rgb(0,0,0)" stroke-width="1" opacity="0.5333333333333333" d="M 65.5 252 L 66.5 254 L 65.5 252 Z " /><path fill="rgb(0,0,0)" stroke="rgb(0,0,0)" stroke-width="1" opacity="0.5333333333333333" d="M 210.5 252 L 209.5 254 L 210.5 252 Z " /><path fill="rgb(0,0,0)" stroke="rgb(0,0,0)" stroke-width="1" opacity="0.5333333333333333" d="M 134.5 253 L 135.5 255 L 134.5 253 Z " /><path fill="rgb(0,0,0)" stroke="rgb(0,0,0)" stroke-width="1" opacity="0.5333333333333333" d="M 184.5 254 L 185 257.5 L 184 257.5 L 184.5 254 Z " /><path fill="rgb(0,0,0)" stroke="rgb(0,0,0)" stroke-width="1" opacity="0.5333333333333333" d="M 195.5 254 L 196 256.5 L 195 256.5 L 195.5 254 Z " /><path fill="rgb(0,0,0)" stroke="rgb(0,0,0)" stroke-width="1" opacity="0.5333333333333333" d="M 108.5 255 L 109 257.5 L 108 257.5 L 108.5 255 Z " /><path fill="rgb(0,0,0)" stroke="rgb(0,0,0)" stroke-width="1" opacity="0.5333333333333333" d="M 223.5 255 L 225 255.5 L 219.5 259 L 221.5 256 L 223.5 255 Z " /><path fill="rgb(0,0,0)" stroke="rgb(0,0,0)" stroke-width="1" opacity="0.5333333333333333" d="M 52.5 256 L 53.5 258 L 52.5 256 Z " /><path fill="rgb(0,0,0)" stroke="rgb(0,0,0)" stroke-width="1" opacity="0.5333333333333333" d="M 124.5 258 L 125 263.5 L 124 263.5 L 124.5 258 Z " /><path fill="rgb(0,0,0)" stroke="rgb(0,0,0)" stroke-width="1" opacity="0.5333333333333333" d="M 147.5 258 L 148 260.5 L 147 260.5 L 147.5 258 Z " /><path fill="rgb(0,0,0)" stroke="rgb(0,0,0)" stroke-width="1" opacity="0.5333333333333333" d="M 234.5 258 L 237 259.5 L 237.5 258 L 238 261 L 234.5 258 Z " /><path fill="rgb(0,0,0)" stroke="rgb(0,0,0)" stroke-width="1" opacity="0.5333333333333333" d="M 38.5 259 L 42 259.5 L 38.5 260 L 38.5 259 Z " /><path fill="rgb(0,0,0)" stroke="rgb(0,0,0)" stroke-width="1" opacity="0.5333333333333333" d="M 96.5 259 L 97 261.5 L 96 261.5 L 96.5 259 Z " /><path fill="rgb(0,0,0)" stroke="rgb(0,0,0)" stroke-width="1" opacity="0.5333333333333333" d="M 107.5 259 L 106.5 261 L 107.5 259 Z " /><path fill="rgb(0,0,0)" stroke="rgb(0,0,0)" stroke-width="1" opacity="0.5333333333333333" d="M 30.5 260 L 34 260.5 L 30.5 261 L 30.5 260 Z " /><path fill="rgb(0,0,0)" stroke="rgb(0,0,0)" stroke-width="1" opacity="0.5333333333333333" d="M 228.5 260 L 233 260.5 L 228.5 261 L 228.5 260 Z " /><path fill="rgb(0,0,0)" stroke="rgb(0,0,0)" stroke-width="1" opacity="0.5333333333333333" d="M 23.5 261 L 26 261.5 L 22.5 263 L 23.5 261 Z " /><path fill="rgb(0,0,0)" stroke="rgb(0,0,0)" stroke-width="1" opacity="0.5333333333333333" d="M 136.5 261 L 137 264.5 L 136 264.5 L 136.5 261 Z " /><path fill="rgb(0,0,0)" stroke="rgb(0,0,0)" stroke-width="1" opacity="0.5333333333333333" d="M 194.5 261 L 195 263.5 L 194 263.5 L 194.5 261 Z " /><path fill="rgb(0,0,0)" stroke="rgb(0,0,0)" stroke-width="1" opacity="0.5333333333333333" d="M 163.5 262 L 164 268.5 L 163 268.5 L 163.5 262 Z " /><path fill="rgb(0,0,0)" stroke="rgb(0,0,0)" stroke-width="1" opacity="0.5333333333333333" d="M 28.5 263 L 25.5 267 L 28.5 263 Z " /><path fill="rgb(0,0,0)" stroke="rgb(0,0,0)" stroke-width="1" opacity="0.5333333333333333" d="M 56.5 263 L 57 268.5 L 56 268.5 L 56.5 263 Z " /><path fill="rgb(0,0,0)" stroke="rgb(0,0,0)" stroke-width="1" opacity="0.5333333333333333" d="M 68.5 263 L 69 267.5 L 68 267.5 L 68.5 263 Z " /><path fill="rgb(0,0,0)" stroke="rgb(0,0,0)" stroke-width="1" opacity="0.5333333333333333" d="M 185.5 264 L 186 266.5 L 184 265.5 L 185.5 264 Z " /><path fill="rgb(0,0,0)" stroke="rgb(0,0,0)" stroke-width="1" opacity="0.5333333333333333" d="M 236.5 265 L 237 267.5 L 236 267.5 L 236.5 265 Z " /><path fill="rgb(0,0,0)" stroke="rgb(0,0,0)" stroke-width="1" opacity="0.5333333333333333" d="M 95.5 266 L 96 269.5 L 95 269.5 L 95.5 266 Z " /><path fill="rgb(0,0,0)" stroke="rgb(0,0,0)" stroke-width="1" opacity="0.5333333333333333" d="M 176.5 266 L 177.5 268 L 176.5 266 Z " /><path fill="rgb(0,0,0)" stroke="rgb(0,0,0)" stroke-width="1" opacity="0.5333333333333333" d="M 122.5 268 L 120.5 271 L 122.5 268 Z " /><path fill="rgb(0,0,0)" stroke="rgb(0,0,0)" stroke-width="1" opacity="0.5333333333333333" d="M 193.5 268 L 194 270.5 L 193 270.5 L 193.5 268 Z " /><path fill="rgb(0,0,0)" stroke="rgb(0,0,0)" stroke-width="1" opacity="0.5333333333333333" d="M 222.5 268 L 224 271.5 L 222 270.5 L 222.5 268 Z " /><path fill="rgb(0,0,0)" stroke="rgb(0,0,0)" stroke-width="1" opacity="0.5333333333333333" d="M 179.5 270 L 180.5 272 L 179.5 270 Z " /><path fill="rgb(0,0,0)" stroke="rgb(0,0,0)" stroke-width="1" opacity="0.5333333333333333" d="M 105 271 L 107 271.5 L 105 272.5 L 105 271 Z " /><path fill="rgb(0,0,0)" stroke="rgb(0,0,0)" stroke-width="1" opacity="0.5333333333333333" d="M 109.5 272 L 112 272.5 L 109.5 273 L 109.5 272 Z " /><path fill="rgb(0,0,0)" stroke="rgb(0,0,0)" stroke-width="1" opacity="0.5333333333333333" d="M 114.5 272 L 117 272.5 L 114.5 273 L 114.5 272 Z " /><path fill="rgb(0,0,0)" stroke="rgb(0,0,0)" stroke-width="1" opacity="0.5333333333333333" d="M 135.5 272 L 136 275.5 L 135 275.5 L 135.5 272 Z " /><path fill="rgb(0,0,0)" stroke="rgb(0,0,0)" stroke-width="1" opacity="0.5333333333333333" d="M 237.5 272 L 238 274.5 L 236 275.5 L 237.5 272 Z " /><path fill="rgb(0,0,0)" stroke="rgb(0,0,0)" stroke-width="1" opacity="0.5333333333333333" d="M 181.5 273 L 182.5 275 L 181.5 273 Z " /><path fill="rgb(0,0,0)" stroke="rgb(0,0,0)" stroke-width="1" opacity="0.5333333333333333" d="M 67.5 274 L 68 276.5 L 67 276.5 L 67.5 274 Z " /><path fill="rgb(0,0,0)" stroke="rgb(0,0,0)" stroke-width="1" opacity="0.5333333333333333" d="M 91.5 277 L 95 278.5 L 91 279 L 91.5 277 Z " /><path fill="rgb(0,0,0)" stroke="rgb(0,0,0)" stroke-width="1" opacity="0.5333333333333333" d="M 133.5 277 L 132.5 279 L 133.5 277 Z " /><path fill="rgb(0,0,0)" stroke="rgb(0,0,0)" stroke-width="1" opacity="0.5333333333333333" d="M 184.5 277 L 185.5 279 L 184.5 277 Z " /><path fill="rgb(0,0,0)" stroke="rgb(0,0,0)" stroke-width="1" opacity="0.5333333333333333" d="M 197.5 277 L 198 279 L 193 278.5 L 197.5 277 Z " /><path fill="rgb(0,0,0)" stroke="rgb(0,0,0)" stroke-width="1" opacity="0.5333333333333333" d="M 64.5 278 L 64.5 281 L 62 280.5 L 64.5 278 Z " /><path fill="rgb(0,0,0)" stroke="rgb(0,0,0)" stroke-width="1" opacity="0.5333333333333333" d="M 81.5 278 L 86 278.5 L 81.5 279 L 81.5 278 Z " /><path fill="rgb(0,0,0)" stroke="rgb(0,0,0)" stroke-width="1" opacity="0.5333333333333333" d="M 149.5 278 L 153 278.5 L 149.5 279 L 149.5 278 Z " /><path fill="rgb(0,0,0)" stroke="rgb(0,0,0)" stroke-width="1" opacity="0.5333333333333333" d="M 161.5 278 L 166 278.5 L 161.5 279 L 161.5 278 Z " /><path fill="rgb(0,0,0)" stroke="rgb(0,0,0)" stroke-width="1" opacity="0.5333333333333333" d="M 35.5 279 L 43 279.5 L 35.5 280 L 35.5 279 Z " /><path fill="rgb(0,0,0)" stroke="rgb(0,0,0)" stroke-width="1" opacity="0.5333333333333333" d="M 71.5 279 L 75 279.5 L 71.5 280 L 71.5 279 Z " /><path fill="rgb(0,0,0)" stroke="rgb(0,0,0)" stroke-width="1" opacity="0.5333333333333333" d="M 101.5 279 L 105 279.5 L 101.5 280 L 101.5 279 Z " /><path fill="rgb(0,0,0)" stroke="rgb(0,0,0)" stroke-width="1" opacity="0.5333333333333333" d="M 138.5 279 L 143 279.5 L 138.5 280 L 138.5 279 Z " /><path fill="rgb(0,0,0)" stroke="rgb(0,0,0)" stroke-width="1" opacity="0.5333333333333333" d="M 172.5 279 L 177 279.5 L 172.5 280 L 172.5 279 Z " /><path fill="rgb(0,0,0)" stroke="rgb(0,0,0)" stroke-width="1" opacity="0.5333333333333333" d="M 111.5 280 L 114 280.5 L 111.5 281 L 111.5 280 Z " /><path fill="rgb(0,0,0)" stroke="rgb(0,0,0)" stroke-width="1" opacity="1" d="M 180.5 28 L 188 36.5 L 180.5 45 L 175.5 38 L 173 36.5 L 177 34 L 180.5 28 Z " /><path fill="rgb(0,0,0)" stroke="rgb(0,0,0)" stroke-width="1" opacity="1" d="M 27.5 54 Q 35.8 54.8 39 60.5 L 40 65 L 50.5 65 L 51.5 66 L 70.5 66 L 77 67 L 81.5 61 Q 84.7 58.7 91.5 60 L 97 63 L 100 68.5 L 100 74.5 L 98 79.5 L 111.5 97 L 122.5 96 L 128 99 L 131 104.5 L 131 110.5 L 127 118.5 L 146.5 143 L 155.5 142 L 162 146.5 Q 164.8 148.5 164 153 L 167.5 154 L 177.5 154 L 178.5 155 L 188.5 155 L 189.5 156 L 200.5 156 L 201.5 157 L 211.5 157 L 212.5 158 L 227.5 159 L 232.5 152 Q 235.8 148.8 243.5 150 L 250 154.5 Q 253.8 157.7 252 166.5 L 247.5 172 Q 243.8 175.3 235.5 174 L 234 175.5 L 220 199.5 Q 226.5 203 227 212.5 Q 225.8 218.3 221.5 221 Q 218.2 224.2 210.5 223 L 203 216.5 Q 204.3 212.8 200.5 214 L 183.5 209 L 166.5 206 Q 162.8 212.8 152.5 213 L 146 210 L 142 200.5 Q 143.1 193.1 148.5 190 L 152 189 L 151 182.5 L 151 169.5 L 150 166 Q 144.4 165.9 142 161.5 Q 139 158.5 140 151.5 L 143 145.5 L 123.5 120 Q 110.9 122.1 108 114.5 L 106 106.5 L 109 100.5 L 94.5 82 Q 91.6 85.6 83.5 84 L 77 78.5 L 75 71 L 40 69 L 40 71.5 L 35.5 77 Q 32.2 80.2 24.5 79 L 17 72.5 L 16 63.5 L 20.5 57 L 27.5 54 Z M 25 59 L 20 65 L 21 72 L 26 75 Q 34 76 36 71 L 35 62 Q 32 58 25 59 Z M 85 64 L 83 65 L 79 72 L 81 78 L 85 80 L 93 79 L 96 75 L 95 68 Q 93 63 85 64 Z M 116 100 L 114 101 L 110 108 L 112 114 L 116 116 L 124 115 L 127 111 L 126 104 Q 124 99 116 100 Z M 150 146 L 148 147 L 144 152 Q 143 160 149 162 L 158 161 Q 161 158 160 151 Q 158 145 150 146 Z M 238 154 L 236 155 L 232 160 L 233 167 Q 235 172 244 170 Q 250 168 248 159 Q 247 152 238 154 Z M 165 157 L 163 161 Q 160 165 155 166 L 156 188 L 162 190 L 167 198 L 167 202 L 202 209 L 205 203 Q 208 198 216 199 L 232 172 Q 227 169 228 163 L 222 162 L 212 162 L 211 161 L 200 161 L 199 160 L 189 160 L 188 159 L 178 159 L 177 158 L 166 158 L 165 157 Z M 155 192 L 150 194 Q 146 197 147 205 L 153 209 L 160 208 L 163 204 L 163 198 L 161 194 L 155 192 Z M 211 203 L 206 209 L 207 216 L 212 219 Q 220 220 222 215 L 221 206 Q 218 202 211 203 Z " /><path fill="rgb(0,0,0)" stroke="rgb(0,0,0)" stroke-width="1" opacity="1" d="M 224.5 54 Q 228.3 65.2 236.5 72 L 245 77.5 L 234 85.5 L 224.5 101 Q 220.7 89.8 212.5 83 L 204 77.5 Q 211.9 73.9 217 67.5 Q 222.2 62.2 224.5 54 Z M 225 64 L 212 78 L 223 90 Q 222 92 226 91 Q 229 82 237 78 L 226 66 Q 227 63 225 64 Z " /><path fill="rgb(0,0,0)" stroke="rgb(0,0,0)" stroke-width="1" opacity="1" d="M 56.5 164 Q 58.8 173.7 66.5 178 L 69 179.5 L 67.5 182 L 60 188.5 L 56.5 196 Q 53.7 187.8 47.5 183 L 43 181 Q 41.9 178.3 44.5 179 L 52 172.5 L 56.5 164 Z M 57 173 L 50 180 L 57 187 L 62 181 L 57 173 Z " /><path fill="rgb(0,0,0)" stroke="rgb(0,0,0)" stroke-width="1" opacity="1" d="M 190.5 176 L 193 176.5 L 190.5 177 L 190.5 176 Z " /><path fill="rgb(0,0,0)" stroke="rgb(0,0,0)" stroke-width="1" opacity="1" d="M 55.5 249 L 57 249.5 L 53.5 252 L 53 250 L 55.5 249 Z " /><path fill="rgb(0,0,0)" stroke="rgb(0,0,0)" stroke-width="1" opacity="1" d="M 47.5 250 L 52 251.5 L 48 254.5 L 54 262 L 56 262.5 L 55 264.5 L 56 266.5 L 55 268.5 L 55.5 270 Q 53.3 269.3 54 271.5 L 49.5 276 L 43.5 279 L 42.5 278 L 34.5 278 Q 33 280.5 31.5 277 L 26 273.5 L 25 270.5 L 27.5 266 L 31 264.5 Q 28.7 263.3 31.5 262 L 39.5 260 L 39.5 261 L 37 262.5 L 37 264.5 Q 36.5 268.5 39.5 269 Q 44 270 45 267.5 L 46 265.5 L 45 260.5 L 46 258.5 L 42.5 254 L 38.5 253 L 37 253.5 Q 36.2 250.9 39.5 252 L 41.5 252 Q 46.1 252.6 47.5 250 Z " /><path fill="rgb(0,0,0)" stroke="rgb(0,0,0)" stroke-width="1" opacity="1" d="M 64.5 250 L 77.5 252 L 80.5 251 L 83 252.5 L 78 255.5 L 78 257.5 L 80 261.5 L 79 263.5 L 81 266.5 L 80 268.5 L 82 271.5 L 81 273.5 L 85 276.5 L 75.5 279 L 71.5 278 L 64.5 280 L 64.5 279 Q 68.5 279.5 69 276.5 L 68 272.5 L 70 264.5 L 69 261.5 L 71 255.5 L 64.5 251 L 64.5 250 Z " /><path fill="rgb(0,0,0)" stroke="rgb(0,0,0)" stroke-width="1" opacity="1" d="M 107.5 250 L 112.5 251 L 114.5 250 L 123 255.5 L 123 257.5 Q 121.5 263 124 264.5 L 119.5 270 L 111.5 272 L 109.5 271 L 108 271.5 Q 108.8 269.3 106.5 270 Q 105.3 267.8 104 270.5 L 106 275.5 L 105.5 277 L 112 279.5 L 109.5 280 L 101.5 278 L 98.5 279 L 93 277.5 L 96 275.5 L 95 272.5 L 97 266.5 L 97 264.5 L 98 259.5 L 97 257.5 L 98 254 L 95.5 253 L 93.5 253 L 92 252.5 L 93.5 252 L 95.5 252 L 100.5 251 L 103.5 252 L 107.5 250 Z M 105 254 L 104 257 L 105 259 L 103 263 L 106 263 L 109 259 L 110 256 L 110 254 L 105 254 Z " /><path fill="rgb(0,0,0)" stroke="rgb(0,0,0)" stroke-width="1" opacity="1" d="M 131.5 250 L 145.5 252 L 148.5 251 L 153 252.5 L 149.5 254 L 147.5 253 L 145 254 L 147 257.5 L 146 260.5 Q 149.5 262 147 263.5 L 149 267.5 L 148 269.5 L 150 272.5 Q 147.7 273.8 150.5 275 L 156 277.5 L 153.5 278 L 149.5 277 L 143.5 279 L 139.5 278 L 132.5 280 L 133.5 278 Q 134.8 280.3 136 277.5 L 137 272.5 L 136 269.5 L 138 261.5 L 137 258.5 L 138 254.5 L 131.5 251 L 131.5 250 Z " /><path fill="rgb(0,0,0)" stroke="rgb(0,0,0)" stroke-width="1" opacity="1" d="M 172.5 250 L 177 251 L 180 260 L 182 260.5 L 182 262.5 L 184 268 L 186.5 269 L 187 265.5 L 185 258.5 L 186 254.5 L 185 252 L 190.5 251 L 195 253.5 L 194 256.5 L 195 258.5 L 193 263.5 L 194 265.5 L 192 270.5 L 193 272.5 L 191 275.5 L 192.5 278 L 186 279 L 185 275.5 L 174.5 261 L 172 261.5 L 174 264.5 L 173 266.5 L 175 273.5 L 177 275.5 Q 174.8 276.8 177.5 278 L 180 278.5 L 177.5 279 L 173.5 278 L 170.5 279 L 163 276.5 L 163 274.5 L 165 267.5 L 165 262.5 L 164 258.5 L 165 253 L 163 252.5 L 166.5 251 L 169.5 252 L 172.5 250 Z " /><path fill="rgb(0,0,0)" stroke="rgb(0,0,0)" stroke-width="1" opacity="1" d="M 217.5 250 L 220.5 251 Q 221.8 248.7 226.5 250 L 228.5 251 Q 230 248.5 231.5 252 L 236 254.5 L 237 259.5 L 236 259.5 L 233.5 256 L 228.5 254 L 225.5 255 L 223.5 254 L 218 258.5 L 217 261.5 L 218 265.5 L 217 268 L 219 268.5 Q 216.3 270.2 220.5 272 L 222 271.5 Q 221.3 273.8 223.5 273 L 228 272 L 229 266 L 223 267 L 222 258.5 L 224 259.5 Q 223.1 262.5 227.5 261 L 231.5 262 L 235.5 261 L 238 262.5 L 235 264.5 L 237 271.5 L 236 275 L 232 276 L 231.5 278 L 227.5 278 L 220.5 279 L 218.5 278 L 217.5 279 Q 215.7 275.9 214 277.5 Q 214.8 275.3 212.5 276 Q 205.6 272.4 205 262.5 Q 206.3 256.8 210.5 254 L 217.5 250 Z " /><path fill="rgb(0,0,0)" stroke="rgb(0,0,0)" stroke-width="1" opacity="1" d="M 32.5 252 L 36 252.5 L 32.5 253 L 32.5 252 Z " /><path fill="rgb(0,0,0)" stroke="rgb(0,0,0)" stroke-width="1" opacity="1" d="M 28.5 261 L 30 261.5 L 27.5 263 L 28.5 261 Z " /></svg>